<svg width="45" height="29" viewBox="0 0 45 29" fill="none" xmlns="http://www.w3.org/2000/svg">
<path fill-rule="evenodd" clip-rule="evenodd" d="M13.4158 8.70087C13.8311 8.19395 14.1114 7.48954 14.0352 6.78745C13.4351 6.81224 12.7095 7.19113 12.2821 7.69616C11.895 8.14436 11.5602 8.86211 11.6526 9.55028C12.32 9.60219 13.0006 9.20764 13.4158 8.70087ZM15.14 13.1558C15.1267 11.6376 16.3704 10.9072 16.428 10.8709C15.7264 9.8439 14.6383 9.70137 14.2507 9.68556C13.3234 9.5932 12.4394 10.2354 11.9707 10.2354C11.5002 10.2354 10.7764 9.70006 10.0058 9.71645C8.99508 9.7308 8.06314 10.3079 7.54286 11.2184C6.49554 13.0567 7.27696 15.7718 8.29951 17.2586C8.80019 17.9865 9.39537 18.8045 10.1798 18.7749C10.9349 18.7453 11.2181 18.2832 12.1304 18.2832C13.0407 18.282 13.2983 18.7737 14.0934 18.7598C14.9048 18.7423 15.4197 18.0167 15.9172 17.2852C16.4892 16.4423 16.7263 15.6237 16.7383 15.5827C16.722 15.5717 15.158 14.9712 15.14 13.1558ZM24.7999 8.70015C24.4974 8.40667 24.1074 8.17829 23.6405 8.02111C23.1777 7.86596 22.622 7.78737 21.9888 7.78737C21.5834 7.78548 21.178 7.80665 20.7749 7.85088C20.4387 7.88858 20.1036 7.93599 19.7702 7.99283L19.6724 8.0098V18.6831H20.6403V14.1865C20.9663 14.2426 21.3395 14.2722 21.7512 14.2722C22.2991 14.2722 22.8123 14.2016 23.2768 14.0631C23.7237 13.9354 24.1399 13.7167 24.4999 13.4211C24.8466 13.1293 25.1255 12.7645 25.3167 12.3523C25.5148 11.9294 25.6155 11.4321 25.6155 10.8727C25.6155 10.41 25.5429 9.99369 25.4013 9.63554C25.2645 9.28667 25.0599 8.96869 24.7999 8.70015ZM23.9105 12.777C23.4137 13.1963 22.7103 13.4089 21.8179 13.4089C21.5724 13.4089 21.3402 13.398 21.127 13.3781C20.9633 13.3632 20.8006 13.3356 20.6409 13.2959V8.75713C20.7688 8.73349 20.9273 8.71116 21.1132 8.69115C21.3491 8.66578 21.6329 8.65302 21.9583 8.65302C22.3318 8.64939 22.704 8.69797 23.0644 8.79759C23.3713 8.88256 23.6598 9.0248 23.9148 9.21678C24.147 9.39803 24.3295 9.63366 24.4561 9.91757C24.5839 10.2051 24.6481 10.5483 24.6481 10.9368C24.6475 11.7433 24.3991 12.3626 23.9105 12.777ZM31.4016 17.6839C31.3908 17.3817 31.3866 17.0785 31.3866 16.7764V13.8094C31.3866 13.4577 31.351 13.099 31.282 12.7425C31.2156 12.3879 31.0792 12.0502 30.8812 11.7493C30.6844 11.4521 30.4089 11.2069 30.0643 11.0196C29.7199 10.8328 29.2722 10.7387 28.7328 10.7387C28.339 10.7387 27.9544 10.79 27.5913 10.8921C27.2099 11.0025 26.8493 11.1752 26.5235 11.4032L26.4449 11.4582L26.772 12.2284L26.8902 12.1481C27.1484 11.9737 27.4307 11.8384 27.7281 11.7469C28.0286 11.6523 28.3416 11.6038 28.6565 11.6032C29.0598 11.6032 29.3821 11.6768 29.6119 11.8218C29.8454 11.9686 30.0211 12.1506 30.1346 12.3631C30.2529 12.5824 30.3302 12.8157 30.3645 13.0578C30.4011 13.3098 30.4185 13.5352 30.4185 13.7285V13.8143C28.9836 13.8076 27.8631 14.048 27.119 14.5309C26.3381 15.0371 25.942 15.7579 25.942 16.6725C25.942 16.9359 25.9888 17.2012 26.0813 17.4634C26.1748 17.7286 26.3171 17.9659 26.5031 18.1689C26.6905 18.3743 26.9323 18.5417 27.2215 18.6669C27.5096 18.793 27.8487 18.8565 28.2274 18.8565C28.7635 18.8655 29.2913 18.7202 29.7482 18.4378C29.9475 18.3139 30.1244 18.1733 30.2758 18.0215C30.3402 17.9564 30.4017 17.8882 30.46 17.8173H30.4972L30.586 18.6837H31.5191L31.4933 18.5446C31.4421 18.2604 31.4114 17.9726 31.4016 17.6839V17.6839ZM30.4185 16.1639C30.4185 16.2677 30.3939 16.4102 30.3471 16.5812C30.2844 16.7662 30.1967 16.9417 30.0866 17.1026C29.8415 17.4639 29.4853 17.7345 29.073 17.8728C28.8227 17.9558 28.5604 17.9959 28.2969 17.992C28.1232 17.992 27.9508 17.9625 27.7869 17.9043C27.6277 17.8486 27.4817 17.7606 27.3578 17.6458C27.2279 17.5221 27.1253 17.3724 27.0565 17.2066C26.9803 17.0295 26.9418 16.8103 26.9418 16.5552C26.9418 16.1378 27.0534 15.7989 27.2725 15.5512C27.5085 15.2872 27.8046 15.0851 28.1356 14.9621C28.5104 14.8203 28.9028 14.7303 29.3016 14.6946C29.6728 14.6585 30.0456 14.6422 30.4185 14.6456V16.1639ZM37.9713 10.912L36.1649 15.8558C36.0521 16.1542 35.9469 16.455 35.851 16.7481C35.8042 16.8942 35.7597 17.0326 35.7159 17.1642H35.6818C35.6367 17.02 35.5906 16.876 35.5436 16.7323C35.4501 16.4423 35.3493 16.1578 35.246 15.8865L33.3142 10.912H32.2814L35.045 18.0638C35.1176 18.2361 35.1284 18.3152 35.1284 18.3471C35.1284 18.3569 35.1249 18.4154 35.0438 18.6329C34.8929 19.021 34.6959 19.3894 34.4576 19.73C34.236 20.0333 34.0332 20.2798 33.8524 20.4617C33.6424 20.6731 33.4258 20.8465 33.2056 20.9776C32.9806 21.1111 32.7753 21.2193 32.5934 21.3009L32.4891 21.3479L32.8257 22.1714L32.9326 22.1315C33.02 22.0983 33.1847 22.0227 33.4342 21.9002C33.6862 21.7751 33.9654 21.577 34.263 21.3086C34.5268 21.0749 34.7611 20.8092 34.9604 20.5178C35.1644 20.223 35.3685 19.8769 35.569 19.4926C35.7669 19.109 35.9649 18.6728 36.1582 18.1949C36.3516 17.7146 36.5591 17.1776 36.7734 16.6006L39.0054 10.912H37.9713ZM40.9691 0.604215L41.4264 0.60465C41.5518 0.605375 41.6772 0.607115 41.8032 0.61016C42.0318 0.61625 42.3007 0.628865 42.5594 0.67599C42.799 0.71949 43.0018 0.786625 43.1979 0.88682C43.5946 1.08938 43.917 1.41419 44.1179 1.81352C44.2176 2.01057 44.2837 2.21488 44.3268 2.45645C44.373 2.7144 44.3863 2.98569 44.3917 3.21711C44.3952 3.34283 44.3971 3.46898 44.3977 3.59644C44.3988 3.74927 44.3988 3.9034 44.3988 4.05681V24.9432C44.3988 25.0966 44.3988 25.25 44.3977 25.4053C44.3972 25.5312 44.3951 25.6572 44.3917 25.7829C44.3857 26.0143 44.373 26.2856 44.3268 26.5453C44.2895 26.7683 44.219 26.9844 44.1179 27.1865C43.9158 27.5855 43.5932 27.9102 43.1968 28.1138C42.996 28.2157 42.7812 28.2867 42.5594 28.3246C42.3098 28.3649 42.0577 28.3866 41.8051 28.3898C41.679 28.3929 41.553 28.3946 41.4251 28.3946C41.2733 28.3958 41.1203 28.3958 40.9685 28.3958H4.02352C3.87285 28.3958 3.72233 28.3958 3.56993 28.3946C3.4439 28.3946 3.31786 28.3929 3.19485 28.3898C2.94148 28.3865 2.68869 28.3646 2.43864 28.3246C2.2161 28.2872 2.00061 28.2158 1.79939 28.1132C1.6022 28.0125 1.42229 27.8807 1.26658 27.7228C1.11015 27.5658 0.979796 27.3847 0.879976 27.1865C0.778428 26.9839 0.70799 26.7671 0.67054 26.5436C0.629776 26.292 0.607883 26.0378 0.605146 25.7829C0.602121 25.6569 0.600393 25.5307 0.599672 25.4047L0.59924 25.0363V3.96445L0.599672 3.59644C0.600393 3.47014 0.602121 3.34399 0.605146 3.21711C0.611196 2.98685 0.623727 2.71628 0.67054 2.45514C0.707702 2.23169 0.778284 2.01521 0.879976 1.81308C1.08134 1.41389 1.40356 1.08953 1.80011 0.88682C2.0009 0.784885 2.21595 0.71398 2.43792 0.676715C2.68826 0.635535 2.9412 0.613495 3.19485 0.61074C3.32017 0.607695 3.44563 0.605955 3.57051 0.605375L4.02899 0.604215H40.9691V0.604215ZM40.9691 0H4.02899L3.56748 0.000579681C3.43785 0.00115968 3.30821 0.00304465 3.17857 0.00666965C2.8951 0.0104397 2.61221 0.0355255 2.33234 0.0816355C2.05247 0.130066 1.78124 0.219965 1.52758 0.34858C1.01898 0.61045 0.605146 1.02718 0.345297 1.53932C0.217245 1.79452 0.127652 2.0677 0.0799748 2.34944C0.0337378 2.63117 0.00867413 2.91581 0.00507312 3.20131C0.00204826 3.33123 0.000175446 3.46173 -0.000400717 3.59223L-0.000976562 4.05681V24.9432L-0.000400717 25.4084C0.000175446 25.5389 0.00204795 25.6693 0.00564896 25.7993C0.0134272 26.0832 0.0301364 26.3696 0.0806946 26.6506C0.131109 26.9362 0.214364 27.2014 0.345297 27.4607C0.603994 27.9738 1.0184 28.391 1.52816 28.6514C1.78556 28.7837 2.04915 28.867 2.33234 28.9185C2.61149 28.9685 2.89597 28.9855 3.17857 28.9933C3.30821 28.997 3.43727 28.9988 3.56748 28.9988C3.72118 29 3.8753 29 4.02899 29H40.9691C41.1227 29 41.2769 29 41.4306 28.9988C41.5602 28.9981 41.6898 28.9964 41.8195 28.9933C42.1015 28.9855 42.386 28.9685 42.6657 28.9185C42.9454 28.8699 43.2164 28.78 43.4697 28.6514C43.9796 28.3911 44.3942 27.974 44.6528 27.4607C44.7841 27.2014 44.8669 26.9362 44.9174 26.6506C44.9678 26.3696 44.984 26.0832 44.9918 25.7993C44.9954 25.6688 44.9972 25.5383 44.9977 25.4084C44.999 25.2531 44.999 25.0985 44.999 24.9432V4.05681C44.999 3.90151 44.999 3.74694 44.9977 3.59165C44.9973 3.46129 44.9953 3.33094 44.9918 3.20073C44.9884 2.91537 44.9634 2.63059 44.9174 2.34885C44.87 2.06712 44.7807 1.79394 44.6528 1.53874C44.3933 1.02602 43.9792 0.609 43.4697 0.348C43.2164 0.219385 42.9454 0.12934 42.6657 0.0809098C42.3858 0.0349448 42.1029 0.00985997 41.8195 0.00608997C41.6893 0.00231997 41.5595 0.00116 41.4306 0H40.9691Z" fill="#333333"/>
</svg>
