<svg width="45" height="29" viewBox="0 0 45 29" fill="none" xmlns="http://www.w3.org/2000/svg">
<path fill-rule="evenodd" clip-rule="evenodd" d="M13.4168 8.70087C13.8321 8.19395 14.1124 7.48954 14.0362 6.78745C13.4361 6.81224 12.7104 7.19113 12.2831 7.69616C11.896 8.14436 11.5611 8.86211 11.6536 9.55028C12.3209 9.60219 13.0015 9.20764 13.4168 8.70087ZM15.141 13.1558C15.1277 11.6376 16.3714 10.9072 16.429 10.8709C15.7274 9.8439 14.6393 9.70137 14.2517 9.68556C13.3243 9.5932 12.4404 10.2354 11.9716 10.2354C11.5012 10.2354 10.7774 9.70006 10.0068 9.71645C8.99605 9.7308 8.06411 10.3079 7.54384 11.2184C6.49652 13.0567 7.27794 15.7718 8.30048 17.2586C8.80117 17.9865 9.39634 18.8045 10.1808 18.7749C10.9358 18.7453 11.219 18.2832 12.1314 18.2832C13.0417 18.282 13.2993 18.7737 14.0944 18.7598C14.9058 18.7423 15.4207 18.0167 15.9182 17.2852C16.4902 16.4423 16.7273 15.6237 16.7392 15.5827C16.723 15.5717 15.159 14.9712 15.141 13.1558ZM24.8009 8.70015C24.4984 8.40667 24.1084 8.17829 23.6415 8.02111C23.1787 7.86596 22.623 7.78737 21.9898 7.78737C21.5843 7.78548 21.179 7.80665 20.7758 7.85088C20.4396 7.88858 20.1046 7.93599 19.7712 7.99283L19.6733 8.0098V18.6831H20.6413V14.1865C20.9673 14.2426 21.3405 14.2722 21.7521 14.2722C22.3001 14.2722 22.8133 14.2016 23.2778 14.0631C23.7246 13.9354 24.1409 13.7167 24.5009 13.4211C24.8476 13.1293 25.1264 12.7645 25.3177 12.3523C25.5158 11.9294 25.6165 11.4321 25.6165 10.8727C25.6165 10.41 25.5439 9.99369 25.4023 9.63554C25.2654 9.28667 25.0609 8.96869 24.8009 8.70015ZM23.9115 12.777C23.4147 13.1963 22.7113 13.4089 21.8188 13.4089C21.5734 13.4089 21.3412 13.398 21.128 13.3781C20.9642 13.3632 20.8016 13.3356 20.6419 13.2959V8.75713C20.7698 8.73349 20.9282 8.71116 21.1142 8.69115C21.3501 8.66578 21.6339 8.65302 21.9593 8.65302C22.3328 8.64939 22.705 8.69797 23.0654 8.79759C23.3723 8.88256 23.6608 9.0248 23.9158 9.21678C24.148 9.39803 24.3305 9.63366 24.4571 9.91757C24.5848 10.2051 24.6491 10.5483 24.6491 10.9368C24.6485 11.7433 24.4 12.3626 23.9115 12.777ZM31.4026 17.6839C31.3918 17.3817 31.3876 17.0785 31.3876 16.7764V13.8094C31.3876 13.4577 31.352 13.099 31.283 12.7425C31.2166 12.3879 31.0802 12.0502 30.8822 11.7493C30.6854 11.4521 30.4098 11.2069 30.0653 11.0196C29.7209 10.8328 29.2732 10.7387 28.7338 10.7387C28.34 10.7387 27.9554 10.79 27.5923 10.8921C27.2108 11.0025 26.8503 11.1752 26.5245 11.4032L26.4458 11.4582L26.773 12.2284L26.8912 12.1481C27.1493 11.9737 27.4317 11.8384 27.7291 11.7469C28.0296 11.6523 28.3426 11.6038 28.6574 11.6032C29.0608 11.6032 29.3831 11.6768 29.6129 11.8218C29.8464 11.9686 30.0221 12.1506 30.1356 12.3631C30.2538 12.5824 30.3312 12.8157 30.3655 13.0578C30.4021 13.3098 30.4195 13.5352 30.4195 13.7285V13.8143C28.9846 13.8076 27.8641 14.048 27.12 14.5309C26.3391 15.0371 25.943 15.7579 25.943 16.6725C25.943 16.9359 25.9898 17.2012 26.0823 17.4634C26.1758 17.7286 26.3181 17.9659 26.504 18.1689C26.6914 18.3743 26.9333 18.5417 27.2225 18.6669C27.5106 18.793 27.8497 18.8565 28.2284 18.8565C28.7645 18.8655 29.2922 18.7202 29.7491 18.4378C29.9485 18.3139 30.1254 18.1733 30.2767 18.0215C30.3411 17.9564 30.4026 17.8882 30.461 17.8173H30.4981L30.587 18.6837H31.5201L31.4943 18.5446C31.443 18.2604 31.4124 17.9726 31.4026 17.6839V17.6839ZM30.4195 16.1639C30.4195 16.2677 30.3949 16.4102 30.348 16.5812C30.2854 16.7662 30.1977 16.9417 30.0876 17.1026C29.8425 17.4639 29.4863 17.7345 29.074 17.8728C28.8237 17.9558 28.5614 17.9959 28.2979 17.992C28.1242 17.992 27.9518 17.9625 27.7879 17.9043C27.6287 17.8486 27.4827 17.7606 27.3588 17.6458C27.2289 17.5221 27.1263 17.3724 27.0574 17.2066C26.9812 17.0295 26.9428 16.8103 26.9428 16.5552C26.9428 16.1378 27.0544 15.7989 27.2735 15.5512C27.5094 15.2872 27.8056 15.0851 28.1366 14.9621C28.5114 14.8203 28.9038 14.7303 29.3026 14.6946C29.6738 14.6585 30.0466 14.6422 30.4195 14.6456V16.1639ZM37.9723 10.912L36.1658 15.8558C36.0531 16.1542 35.9479 16.455 35.852 16.7481C35.8052 16.8942 35.7607 17.0326 35.7169 17.1642H35.6827C35.6377 17.02 35.5916 16.876 35.5446 16.7323C35.4511 16.4423 35.3503 16.1578 35.247 15.8865L33.3151 10.912H32.2824L35.0459 18.0638C35.1185 18.2361 35.1293 18.3152 35.1293 18.3471C35.1293 18.3569 35.1259 18.4154 35.0448 18.6329C34.8938 19.021 34.6969 19.3894 34.4585 19.73C34.237 20.0333 34.0342 20.2798 33.8534 20.4617C33.6434 20.6731 33.4268 20.8465 33.2065 20.9776C32.9815 21.1111 32.7763 21.2193 32.5944 21.3009L32.4901 21.3479L32.8267 22.1714L32.9336 22.1315C33.021 22.0983 33.1856 22.0227 33.4351 21.9002C33.6872 21.7751 33.9663 21.577 34.2639 21.3086C34.5278 21.0749 34.762 20.8092 34.9614 20.5178C35.1653 20.223 35.3695 19.8769 35.57 19.4926C35.7679 19.109 35.9659 18.6728 36.1592 18.1949C36.3525 17.7146 36.5601 17.1776 36.7744 16.6006L39.0063 10.912H37.9723ZM40.97 0.604215L41.4274 0.60465C41.5528 0.605375 41.6781 0.607115 41.8042 0.61016C42.0328 0.61625 42.3017 0.628865 42.5604 0.67599C42.7999 0.71949 43.0027 0.786625 43.1989 0.88682C43.5956 1.08938 43.918 1.41419 44.1189 1.81352C44.2186 2.01057 44.2847 2.21488 44.3278 2.45645C44.374 2.7144 44.3873 2.98569 44.3927 3.21711C44.3962 3.34283 44.3981 3.46898 44.3986 3.59644C44.3998 3.74927 44.3998 3.9034 44.3998 4.05681V24.9432C44.3998 25.0966 44.3998 25.25 44.3986 25.4053C44.3982 25.5312 44.396 25.6572 44.3927 25.7829C44.3867 26.0143 44.374 26.2856 44.3278 26.5453C44.2905 26.7683 44.22 26.9844 44.1189 27.1865C43.9168 27.5855 43.5942 27.9102 43.1978 28.1138C42.997 28.2157 42.7822 28.2867 42.5604 28.3246C42.3108 28.3649 42.0587 28.3866 41.806 28.3898C41.68 28.3929 41.554 28.3946 41.4261 28.3946C41.2742 28.3958 41.1213 28.3958 40.9695 28.3958H4.02449C3.87383 28.3958 3.72331 28.3958 3.57091 28.3946C3.44488 28.3946 3.31884 28.3929 3.19583 28.3898C2.94246 28.3865 2.68967 28.3646 2.43962 28.3246C2.21707 28.2872 2.00159 28.2158 1.80036 28.1132C1.60317 28.0125 1.42326 27.8807 1.26756 27.7228C1.11113 27.5658 0.980773 27.3847 0.880953 27.1865C0.779404 26.9839 0.708967 26.7671 0.671516 26.5436C0.630753 26.292 0.60886 26.0378 0.606123 25.7829C0.603098 25.6569 0.601369 25.5307 0.600649 25.4047L0.600217 25.0363V3.96445L0.600649 3.59644C0.601369 3.47014 0.603098 3.34399 0.606123 3.21711C0.612172 2.98685 0.624703 2.71628 0.671516 2.45514C0.708679 2.23169 0.77926 2.01521 0.880953 1.81308C1.08232 1.41389 1.40454 1.08953 1.80108 0.88682C2.00188 0.784885 2.21693 0.71398 2.43889 0.676715C2.68924 0.635535 2.94217 0.613495 3.19583 0.61074C3.32114 0.607695 3.4466 0.605955 3.57149 0.605375L4.02997 0.604215H40.97V0.604215ZM40.97 0H4.02997L3.56846 0.000579681C3.43882 0.00115968 3.30919 0.00304465 3.17955 0.00666965C2.89608 0.0104397 2.61318 0.0355255 2.33331 0.0816355C2.05344 0.130066 1.78222 0.219965 1.52856 0.34858C1.01995 0.61045 0.606123 1.02718 0.346273 1.53932C0.218221 1.79452 0.128629 2.0677 0.0809514 2.34944C0.0347144 2.63117 0.00965069 2.91581 0.00604968 3.20131C0.00302483 3.33123 0.00115201 3.46173 0.000575846 3.59223L0 4.05681V24.9432L0.000575846 25.4084C0.00115201 25.5389 0.00302451 25.6693 0.00662552 25.7993C0.0144037 26.0832 0.031113 26.3696 0.0816712 26.6506C0.132085 26.9362 0.215341 27.2014 0.346273 27.4607C0.60497 27.9738 1.01938 28.391 1.52914 28.6514C1.78654 28.7837 2.05013 28.867 2.33331 28.9185C2.61246 28.9685 2.89694 28.9855 3.17955 28.9933C3.30919 28.997 3.43825 28.9988 3.56846 28.9988C3.72215 29 3.87628 29 4.02997 29H40.97C41.1237 29 41.2779 29 41.4315 28.9988C41.5612 28.9981 41.6908 28.9964 41.8204 28.9933C42.1025 28.9855 42.387 28.9685 42.6667 28.9185C42.9464 28.8699 43.2174 28.78 43.4707 28.6514C43.9806 28.3911 44.3952 27.974 44.6537 27.4607C44.7851 27.2014 44.8679 26.9362 44.9183 26.6506C44.9687 26.3696 44.985 26.0832 44.9928 25.7993C44.9964 25.6688 44.9981 25.5383 44.9987 25.4084C45 25.2531 45 25.0985 45 24.9432V4.05681C45 3.90151 45 3.74694 44.9987 3.59165C44.9983 3.46129 44.9963 3.33094 44.9928 3.20073C44.9893 2.91537 44.9644 2.63059 44.9183 2.34885C44.8709 2.06712 44.7816 1.79394 44.6537 1.53874C44.3943 1.02602 43.9802 0.609 43.4707 0.348C43.2174 0.219385 42.9464 0.12934 42.6667 0.0809098C42.3868 0.0349448 42.1039 0.00985997 41.8204 0.00608997C41.6902 0.00231997 41.5605 0.00116 41.4315 0H40.97Z" fill="#282828"/>
</svg>
