<svg width="24" height="24" viewBox="0 0 24 24" fill="none" xmlns="http://www.w3.org/2000/svg">
<path d="M11.772 3.74301C12.8827 2.63817 14.3815 2.01157 15.948 1.99711C17.5146 1.98265 19.0247 2.58149 20.1556 3.66564C21.2865 4.74979 21.9485 6.23326 22.0002 7.79903C22.0518 9.36481 21.489 10.8887 20.432 12.045L20.242 12.242L11.442 21.04L11.406 21.07C10.7207 21.6857 9.83139 22.0255 8.9101 22.0236C7.9888 22.0216 7.10093 21.6782 6.41818 21.0596C5.73542 20.441 5.30626 19.5913 5.2137 18.6746C5.12113 17.758 5.37172 16.8396 5.91701 16.097C5.94086 16.0509 5.96934 16.0073 6.00201 15.967L6.05601 15.907L6.14201 15.819L6.28401 15.671L6.28601 15.674L13.722 8.22001C13.8489 8.09258 14.0174 8.015 14.1968 8.00142C14.3761 7.98784 14.5543 8.03915 14.699 8.14601L14.783 8.21901C14.9102 8.34587 14.9876 8.51416 15.0012 8.69327C15.0148 8.87239 14.9636 9.05042 14.857 9.19501L14.784 9.27901L7.19001 16.892C6.83972 17.3234 6.66314 17.8701 6.69488 18.425C6.72661 18.9798 6.96436 19.5028 7.36155 19.8915C7.75875 20.2801 8.28676 20.5065 8.84215 20.5262C9.39753 20.5459 9.94026 20.3576 10.364 19.998L19.196 11.168C20.0088 10.3346 20.4671 9.21871 20.4748 8.05459C20.4825 6.89048 20.039 5.76864 19.2373 4.92452C18.4357 4.08041 17.3382 3.57965 16.1752 3.52735C15.0122 3.47504 13.8742 3.87526 13 4.64401L12.832 4.80401L12.819 4.81801L3.28301 14.354C3.14919 14.4882 2.96952 14.5668 2.78014 14.5739C2.59075 14.581 2.4057 14.5162 2.26217 14.3924C2.11865 14.2686 2.0273 14.0951 2.00649 13.9067C1.98568 13.7184 2.03696 13.5291 2.15001 13.377L2.22201 13.293L11.771 3.74301H11.773H11.772Z" fill="#00AB44"/>
</svg>
