<svg width="30" height="30" viewBox="0 0 30 30" fill="none" xmlns="http://www.w3.org/2000/svg">
<g clip-path="url(#clip0)">
<path fill-rule="evenodd" clip-rule="evenodd" d="M12.1875 22.5C13.5418 22.5 14.8828 22.2333 16.1339 21.715C17.3851 21.1968 18.5219 20.4371 19.4795 19.4795C20.4371 18.5219 21.1968 17.3851 21.715 16.1339C22.2333 14.8828 22.5 13.5418 22.5 12.1875C22.5 10.8332 22.2333 9.49225 21.715 8.24108C21.1968 6.98991 20.4371 5.85307 19.4795 4.89546C18.5219 3.93786 17.3851 3.17824 16.1339 2.65999C14.8828 2.14174 13.5418 1.875 12.1875 1.875C9.45246 1.875 6.82943 2.96149 4.89546 4.89546C2.96149 6.82943 1.875 9.45246 1.875 12.1875C1.875 14.9225 2.96149 17.5456 4.89546 19.4795C6.82943 21.4135 9.45246 22.5 12.1875 22.5ZM24.375 12.1875C24.375 15.4198 23.091 18.5198 20.8054 20.8054C18.5198 23.091 15.4198 24.375 12.1875 24.375C8.95517 24.375 5.85524 23.091 3.56964 20.8054C1.28404 18.5198 0 15.4198 0 12.1875C0 8.95517 1.28404 5.85524 3.56964 3.56964C5.85524 1.28404 8.95517 0 12.1875 0C15.4198 0 18.5198 1.28404 20.8054 3.56964C23.091 5.85524 24.375 8.95517 24.375 12.1875Z" fill="#00AB44"/>
<path d="M19.395 22.0164C19.4513 22.0914 19.5113 22.1626 19.5788 22.232L26.7975 29.4507C27.1491 29.8026 27.626 30.0003 28.1234 30.0005C28.6208 30.0007 29.0979 29.8033 29.4497 29.4517C29.8015 29.1001 29.9993 28.6232 29.9995 28.1258C29.9996 27.6284 29.8022 27.1513 29.4506 26.7995L22.2319 19.5807C22.1649 19.5129 22.0928 19.4502 22.0163 19.3932C21.2807 20.3962 20.3969 21.2813 19.395 22.0182V22.0164Z" fill="#00AB44"/>
<path fill-rule="evenodd" clip-rule="evenodd" d="M12.1875 5.625C12.4361 5.625 12.6746 5.72377 12.8504 5.89959C13.0262 6.0754 13.125 6.31386 13.125 6.5625V11.25H17.8125C18.0611 11.25 18.2996 11.3488 18.4754 11.5246C18.6512 11.7004 18.75 11.9389 18.75 12.1875C18.75 12.4361 18.6512 12.6746 18.4754 12.8504C18.2996 13.0262 18.0611 13.125 17.8125 13.125H13.125V17.8125C13.125 18.0611 13.0262 18.2996 12.8504 18.4754C12.6746 18.6512 12.4361 18.75 12.1875 18.75C11.9389 18.75 11.7004 18.6512 11.5246 18.4754C11.3488 18.2996 11.25 18.0611 11.25 17.8125V13.125H6.5625C6.31386 13.125 6.0754 13.0262 5.89959 12.8504C5.72377 12.6746 5.625 12.4361 5.625 12.1875C5.625 11.9389 5.72377 11.7004 5.89959 11.5246C6.0754 11.3488 6.31386 11.25 6.5625 11.25H11.25V6.5625C11.25 6.31386 11.3488 6.0754 11.5246 5.89959C11.7004 5.72377 11.9389 5.625 12.1875 5.625Z" fill="#00AB44"/>
</g>
<defs>
<clipPath id="clip0">
<rect width="30" height="30" fill="white"/>
</clipPath>
</defs>
</svg>
