<svg width="27" height="26" viewBox="0 0 27 26" fill="none" xmlns="http://www.w3.org/2000/svg">
<path d="M15.7787 12.9989L21.2082 7.58131C21.446 7.34351 21.5796 7.02099 21.5796 6.68469C21.5796 6.34839 21.446 6.02586 21.2082 5.78806C20.9704 5.55027 20.648 5.41667 20.3117 5.41667C19.9755 5.41667 19.653 5.55027 19.4152 5.78806L13.9984 11.2183L8.58152 5.78806C8.34376 5.55027 8.02128 5.41667 7.68503 5.41667C7.34878 5.41667 7.0263 5.55027 6.78853 5.78806C6.55077 6.02586 6.41719 6.34839 6.41719 6.68469C6.41719 7.02099 6.55077 7.34351 6.78853 7.58131L12.218 12.9989L6.78853 18.4165C6.67019 18.5339 6.57625 18.6736 6.51215 18.8275C6.44804 18.9814 6.41504 19.1465 6.41504 19.3132C6.41504 19.4799 6.44804 19.6449 6.51215 19.7988C6.57625 19.9527 6.67019 20.0924 6.78853 20.2098C6.90592 20.3282 7.04557 20.4221 7.19944 20.4862C7.3533 20.5503 7.51834 20.5833 7.68503 20.5833C7.85172 20.5833 8.01675 20.5503 8.17062 20.4862C8.32449 20.4221 8.46414 20.3282 8.58152 20.2098L13.9984 14.7795L19.4152 20.2098C19.5326 20.3282 19.6723 20.4221 19.8261 20.4862C19.98 20.5503 20.145 20.5833 20.3117 20.5833C20.4784 20.5833 20.6434 20.5503 20.7973 20.4862C20.9512 20.4221 21.0908 20.3282 21.2082 20.2098C21.3266 20.0924 21.4205 19.9527 21.4846 19.7988C21.5487 19.6449 21.5817 19.4799 21.5817 19.3132C21.5817 19.1465 21.5487 18.9814 21.4846 18.8275C21.4205 18.6736 21.3266 18.5339 21.2082 18.4165L15.7787 12.9989Z" fill="#282828"/>
</svg>
