<svg width="20" height="21" viewBox="0 0 20 21" fill="none" xmlns="http://www.w3.org/2000/svg">
<path d="M13.5 6.5H6.5C6.10218 6.5 5.72064 6.65804 5.43934 6.93934C5.15804 7.22064 5 7.60218 5 8V13C5 13.3978 5.15804 13.7794 5.43934 14.0607C5.72064 14.342 6.10218 14.5 6.5 14.5H13.5C13.8978 14.5 14.2794 14.342 14.5607 14.0607C14.842 13.7794 15 13.3978 15 13V8C15 7.60218 14.842 7.22064 14.5607 6.93934C14.2794 6.65804 13.8978 6.5 13.5 6.5V6.5ZM13.5 7.5L10.25 9.735C10.174 9.77888 10.0878 9.80199 10 9.80199C9.91223 9.80199 9.82601 9.77888 9.75 9.735L6.5 7.5H13.5Z" fill="#00AB44"/>
</svg>
