<svg width="61" height="25" viewBox="0 0 61 25" fill="none" xmlns="http://www.w3.org/2000/svg">
<path d="M28.8497 12.2138V19.5419H26.5972V1.4447H32.5713C33.2844 1.42932 33.9934 1.55985 34.6574 1.82875C35.3213 2.09765 35.9271 2.4996 36.4398 3.0114C36.9576 3.49212 37.3697 4.08168 37.6485 4.74044C37.9272 5.39921 38.0661 6.11192 38.0557 6.83067C38.0706 7.55327 37.9338 8.27064 37.6549 8.9336C37.376 9.59656 36.9615 10.1894 36.4398 10.6716C35.3951 11.6997 34.1056 12.2133 32.5713 12.2123H28.8497V12.2138ZM28.8497 3.67273V9.99006H32.6273C33.0414 10.0027 33.4535 9.92605 33.8373 9.76493C34.2211 9.60381 34.568 9.3618 34.856 9.05437C35.1425 8.76693 35.3702 8.42313 35.5257 8.04329C35.6812 7.66345 35.7613 7.25529 35.7613 6.84295C35.7613 6.4306 35.6812 6.02244 35.5257 5.6426C35.3702 5.26276 35.1425 4.91896 34.856 4.63152C34.5717 4.31761 34.2259 4.06967 33.8417 3.90412C33.4574 3.73858 33.0435 3.65921 32.6273 3.67129H28.8497V3.67273Z" fill="#333333"/>
<path d="M43.2456 6.75555C44.9105 6.75555 46.2247 7.21473 47.1882 8.13309C48.1517 9.05145 48.633 10.3106 48.6321 11.9105V19.5418H46.4775V17.8235H46.3796C45.4468 19.2386 44.2063 19.9461 42.658 19.9461C41.3363 19.9461 40.2305 19.5418 39.3407 18.7332C38.9137 18.3621 38.5723 17.8973 38.3414 17.3727C38.1105 16.8481 37.9959 16.277 38.006 15.7009C38.006 14.4196 38.4751 13.4007 39.4135 12.644C40.3518 11.8874 41.6045 11.5081 43.1714 11.5062C44.509 11.5062 45.6105 11.7589 46.4761 12.2643V11.7329C46.4786 11.3402 46.3965 10.9518 46.2356 10.5959C46.0746 10.24 45.839 9.92549 45.5457 9.67524C44.95 9.12059 44.1737 8.81795 43.3715 8.82764C42.1133 8.82764 41.1176 9.37538 40.3844 10.4709L38.4005 9.18141C39.4918 7.56417 41.1068 6.75555 43.2456 6.75555ZM40.3313 15.7514C40.3298 16.0473 40.3968 16.3393 40.5267 16.603C40.6567 16.8667 40.8458 17.0946 41.0784 17.2676C41.5766 17.672 42.1949 17.8863 42.8287 17.8741C43.7792 17.8724 44.6903 17.4819 45.3624 16.7882C46.1086 16.0633 46.4817 15.2128 46.4817 14.2367C45.7793 13.6591 44.8 13.3703 43.5436 13.3703C42.6286 13.3703 41.8656 13.598 41.2547 14.0533C40.6377 14.5154 40.3313 15.0771 40.3313 15.7514V15.7514Z" fill="#333333"/>
<path d="M60.999 7.15979L53.4775 24.9999H51.1522L53.9434 18.7577L48.9976 7.15979H51.446L55.0207 16.0546H55.0696L58.5464 7.15979H60.999Z" fill="#333333"/>
<path d="M19.7451 10.634C19.7459 9.92556 19.6879 9.21832 19.5716 8.52008H10.0718V12.5242H15.5128C15.4015 13.1637 15.1658 13.7733 14.8201 14.3163C14.4743 14.8593 14.0256 15.3244 13.501 15.6836V18.2827H16.7482C18.6496 16.4734 19.7451 13.7978 19.7451 10.634Z" fill="#333333"/>
<path d="M10.0721 20.7937C12.7906 20.7937 15.0795 19.8724 16.7486 18.284L13.5013 15.6849C12.5975 16.3174 11.4335 16.6784 10.0721 16.6784C7.44464 16.6784 5.21449 14.8503 4.41701 12.3869H1.07178V15.0655C1.91021 16.7873 3.19585 18.2348 4.78517 19.2464C6.37448 20.2579 8.20493 20.7936 10.0721 20.7937V20.7937Z" fill="#333333"/>
<path d="M4.41739 12.3869C3.99579 11.0961 3.99579 9.69821 4.41739 8.40737V5.72882H1.07216C0.36684 7.17734 -0.000488281 8.77602 -0.000488281 10.3972C-0.000488281 12.0183 0.36684 13.617 1.07216 15.0655L4.41739 12.3869Z" fill="#333333"/>
<path d="M10.0721 4.11597C11.5087 4.09175 12.8968 4.65194 13.9364 5.67545L16.8116 2.70811C14.9884 0.940811 12.5732 -0.0294665 10.0721 0.000682109C8.20493 0.000769939 6.37448 0.536471 4.78517 1.54798C3.19585 2.55948 1.91021 4.00699 1.07178 5.72888L4.41701 8.40743C5.21449 5.94403 7.44464 4.11597 10.0721 4.11597Z" fill="#333333"/>
</svg>
