<svg width="20" height="20" viewBox="0 0 20 20" fill="none" xmlns="http://www.w3.org/2000/svg">
<path d="M10 17L9.71765 16.7643C3.64706 11.8148 2 10.0707 2 7.24242C2 4.88552 3.88235 3 6.23529 3C8.16471 3 9.24706 4.08418 10 4.93266C10.7529 4.08418 11.8353 3 13.7647 3C16.1176 3 18 4.88552 18 7.24242C18 10.0707 16.3529 11.8148 10.2824 16.7643L10 17ZM6.23529 3.94276C4.4 3.94276 2.94118 5.40404 2.94118 7.24242C2.94118 9.64646 4.44706 11.2492 10 15.7744C15.5529 11.2492 17.0588 9.64646 17.0588 7.24242C17.0588 5.40404 15.6 3.94276 13.7647 3.94276C12.1176 3.94276 11.2235 4.93266 10.5176 5.73401L10 6.3468L9.48235 5.73401C8.77647 4.93266 7.88235 3.94276 6.23529 3.94276Z" fill="#282828"/>
</svg>
