<svg width="20" height="21" viewBox="0 0 20 21" fill="none" xmlns="http://www.w3.org/2000/svg">
<path d="M10 2.509C7.238 2.509 5 4.738 5 7.499C5 12.273 10 18.499 10 18.499C10 18.499 15 12.272 15 7.499C15 4.739 12.762 2.509 10 2.509V2.509ZM10 10.26C9.28392 10.26 8.59716 9.97554 8.09081 9.46919C7.58446 8.96284 7.3 8.27609 7.3 7.56C7.3 6.84392 7.58446 6.15716 8.09081 5.65081C8.59716 5.14447 9.28392 4.86 10 4.86C10.7161 4.86 11.4028 5.14447 11.9092 5.65081C12.4155 6.15716 12.7 6.84392 12.7 7.56C12.7 8.27609 12.4155 8.96284 11.9092 9.46919C11.4028 9.97554 10.7161 10.26 10 10.26Z" fill="#00AB44"/>
</svg>
