<svg width="41" height="25" viewBox="0 0 41 25" fill="none" xmlns="http://www.w3.org/2000/svg">
<path d="M20.4063 21.711C22.8525 19.4084 24.3975 16.119 24.3975 12.5006C24.3975 8.81636 22.8525 5.52691 20.4063 3.29007C18.2176 1.3164 15.3852 0.0664062 12.2309 0.0664062C5.47172 0.0664062 0 5.65848 0 12.5006C0 19.4084 5.47172 25.0005 12.2309 25.0005C15.3852 24.9347 18.2176 23.6847 20.4063 21.711Z" fill="var(--color-pay, #3362AB)"/>
<path d="M20.4053 21.7105C22.8515 19.4079 24.3964 16.1184 24.3964 12.5C24.3964 8.81584 22.8515 5.52638 20.4053 3.28955" fill="var(--color-pay, #3362AB)"/>
<path d="M20.4053 21.7105C22.8515 19.4079 24.3964 16.1184 24.3964 12.5C24.3964 8.81584 22.8515 5.52638 20.4053 3.28955" stroke="var(--color-pay, #3362AB)" stroke-width="0.3097"/>
<path d="M28.5828 0C25.4285 0 22.5317 1.24999 20.4074 3.22366C19.9568 3.6184 19.5705 4.07892 19.1843 4.53945H21.6305C21.9523 4.93418 22.2742 5.3947 22.5317 5.85523H18.2187C17.9612 6.24996 17.7037 6.71049 17.5106 7.17101H23.2398C23.4329 7.63153 23.6261 8.02627 23.7548 8.48679H16.9956C16.8669 8.94732 16.7381 9.34205 16.6094 9.80258H24.0767C24.2698 10.6578 24.3342 11.5131 24.3342 12.4341C24.3342 13.8157 24.141 15.1315 23.6904 16.3815H16.9312C17.06 16.842 17.2531 17.3025 17.4462 17.6973H23.1754C22.9823 18.1578 22.7248 18.6183 22.4673 19.0131H18.1543C18.4118 19.4736 18.7337 19.9341 19.0556 20.3288H21.5017C21.1155 20.7894 20.7293 21.2499 20.2786 21.6446C22.4673 23.6183 25.2998 24.8683 28.454 24.8683C35.2132 24.8683 40.6206 19.2762 40.6206 12.3684C40.8137 5.59208 35.342 0 28.5828 0Z" fill="var(--color-pay, #C8191C)"/>
<path d="M10.6862 15.5262H9.14122L10.0424 10.6578L7.98251 15.5262H6.63067L6.37318 10.7236L5.47194 15.5262H4.12012L5.27883 9.21045H7.66064L7.78938 13.1578L9.46309 9.21045H11.9093L10.6862 15.5262Z" fill="white"/>
<path d="M27.6807 15.5263C27.2945 15.6579 26.9082 15.7237 26.5864 15.7237C25.8139 15.7237 25.3633 15.329 25.3633 14.6053C25.3633 14.4737 25.3633 14.2763 25.4276 14.1448L25.492 13.6185L25.5564 13.2237L26.2645 9.27637H27.7451L27.552 10.4606H28.3244L28.1313 11.7106H27.3588L26.9726 13.8816C26.9726 13.9474 26.9726 14.079 26.9726 14.079C26.9726 14.3421 27.1657 14.4737 27.4876 14.4737C27.6807 14.4737 27.8095 14.4737 27.8738 14.4079L27.6807 15.5263Z" fill="white"/>
<path d="M32.0577 10.4603C31.929 10.3945 31.9289 10.3945 31.8646 10.3945C31.8002 10.3945 31.7358 10.3945 31.7358 10.3945C31.6715 10.3945 31.6071 10.3945 31.5427 10.3945C31.0277 10.3945 30.7059 10.5919 30.1909 11.2498L30.3196 10.4603H29.0965L28.1953 15.5919H29.7403C30.2553 12.434 30.5127 11.9077 31.2208 11.9077C31.2852 11.9077 31.3496 11.9077 31.414 11.9077L31.6071 11.9735L32.0577 10.4603Z" fill="white"/>
<path d="M21.6292 12.0391C21.6292 12.697 22.0154 13.1576 22.7879 13.4865C23.4316 13.7497 23.496 13.8154 23.496 14.0786C23.496 14.4075 23.2385 14.5391 22.5948 14.5391C22.1441 14.5391 21.6935 14.4733 21.2429 14.3418L21.0498 15.526H21.1142L21.3717 15.5917C21.436 15.5917 21.6292 15.6575 21.7579 15.6575C22.1442 15.6575 22.4016 15.7233 22.5948 15.7233C24.2041 15.7233 24.9766 15.197 24.9766 14.0128C24.9766 13.2891 24.6547 12.8944 23.8822 12.5654C23.2385 12.3023 23.1741 12.2365 23.1741 11.9733C23.1741 11.7102 23.4316 11.5786 23.9466 11.5786C24.2685 11.5786 24.6547 11.5786 25.041 11.6444L25.2341 10.4602C24.8478 10.3944 24.2685 10.3286 23.8822 10.3286C22.2085 10.3286 21.6292 11.1181 21.6292 12.0391Z" fill="white"/>
<path d="M14.5489 13.2891C14.3558 13.2891 14.2914 13.2891 14.227 13.2891C13.3902 13.2891 12.9396 13.5523 12.9396 14.0786C12.9396 14.4075 13.1327 14.6049 13.4546 14.6049C14.0339 14.5391 14.4845 14.0128 14.5489 13.2891ZM15.6432 15.526H14.3558L14.4202 14.9996C14.0339 15.3944 13.5189 15.5917 12.8108 15.5917C11.974 15.5917 11.459 14.9996 11.459 14.2102C11.459 12.9602 12.4246 12.2365 14.0983 12.2365C14.2914 12.2365 14.4845 12.2365 14.742 12.3023C14.8064 12.1049 14.8064 12.0391 14.8064 11.9733C14.8064 11.6444 14.5489 11.5128 13.8408 11.5128C13.3902 11.5128 12.9396 11.5786 12.6177 11.6444L12.4246 11.7102L12.2958 11.776L12.489 10.5918C13.2614 10.3944 13.712 10.3286 14.2914 10.3286C15.5789 10.3286 16.287 10.8549 16.287 11.8418C16.287 12.1049 16.287 12.3023 16.1582 12.8286L15.8364 14.6707L15.772 14.9996L15.7076 15.2628V15.4602L15.6432 15.526Z" fill="white"/>
<path d="M19.8269 12.3684C19.8269 12.2369 19.8269 12.1711 19.8269 12.1053C19.8269 11.7105 19.5694 11.4474 19.1188 11.4474C18.6038 11.4474 18.2819 11.7763 18.1532 12.3684H19.8269ZM20.5994 15.4605C20.0844 15.5921 19.5694 15.6579 19.0544 15.6579C17.3807 15.6579 16.4795 14.8684 16.4795 13.3553C16.4795 11.579 17.5738 10.2632 19.1188 10.2632C20.3419 10.2632 21.1787 10.9869 21.1787 12.1053C21.1787 12.5 21.1144 12.829 20.9856 13.3553H17.9601C17.9601 13.4211 17.9601 13.4869 17.9601 13.4869C17.9601 14.079 18.4107 14.4079 19.3119 14.4079C19.8269 14.4079 20.3419 14.2763 20.9212 14.079L20.5994 15.4605Z" fill="white"/>
<path d="M35.2122 12.5654C35.2122 12.0391 35.019 11.5128 34.3753 11.5128C33.6028 11.5128 33.1522 12.4339 33.1522 13.2891C33.1522 14.0128 33.4741 14.4733 34.0534 14.4733C34.3753 14.4733 35.0834 14.0128 35.2122 13.2233C35.2122 13.026 35.2122 12.7628 35.2122 12.5654ZM36.8215 13.2233C36.564 14.9339 35.4053 15.7233 33.8603 15.7233C32.1222 15.7233 31.4785 14.6707 31.4785 13.3549C31.4785 11.5128 32.6372 10.3286 34.4397 10.3286C36.049 10.3286 36.8215 11.3155 36.8215 12.6312C36.8859 12.8944 36.8859 12.8944 36.8215 13.2233Z" fill="white"/>
</svg>
