<svg width="40" height="25" viewBox="0 0 40 25" fill="none" xmlns="http://www.w3.org/2000/svg">
<path d="M20.0919 21.7106C22.5004 19.4079 24.0216 16.1185 24.0216 12.5001C24.0216 8.81588 22.5004 5.52642 20.0919 3.28959C17.9369 1.31591 15.148 0.065918 12.0423 0.065918C5.38706 0.065918 -0.000488281 5.658 -0.000488281 12.5001C-0.000488281 19.4079 5.38706 25 12.0423 25C15.148 24.9342 17.9369 23.6842 20.0919 21.7106Z" fill="#333333"/>
<path d="M20.0913 21.7106C22.4999 19.408 24.0211 16.1185 24.0211 12.5001C24.0211 8.8159 22.4999 5.52644 20.0913 3.28961" fill="#333333"/>
<path d="M20.0913 21.7106C22.4999 19.408 24.0211 16.1185 24.0211 12.5001C24.0211 8.8159 22.4999 5.52644 20.0913 3.28961" stroke="#333333" stroke-width="0.3097"/>
<path d="M28.1423 0C25.0365 0 22.1843 1.24999 20.0926 3.22367C19.6489 3.6184 19.2686 4.07892 18.8883 4.53945H21.2969C21.6138 4.93418 21.9307 5.39471 22.1842 5.85523H17.9376C17.6841 6.24997 17.4305 6.71049 17.2404 7.17102H22.8815C23.0716 7.63154 23.2618 8.02628 23.3885 8.4868H16.7333C16.6066 8.94732 16.4798 9.34206 16.353 9.80258H23.7054C23.8956 10.6578 23.959 11.5131 23.959 12.4342C23.959 13.8157 23.7688 15.1315 23.3251 16.3815H16.6699C16.7967 16.842 16.9868 17.3025 17.177 17.6973H22.8181C22.6279 18.1578 22.3744 18.6183 22.1209 19.0131H17.8742C18.1277 19.4736 18.4447 19.9341 18.7616 20.3289H21.1701C20.7898 20.7894 20.4095 21.2499 19.9658 21.6446C22.1209 23.6183 24.9097 24.8683 28.0155 24.8683C34.6707 24.8683 39.9948 19.2762 39.9948 12.3684C40.185 5.59208 34.7975 0 28.1423 0Z" fill="#333333"/>
<path d="M10.5212 15.5261H9.00001L9.88737 10.6577L7.85913 15.5261H6.52808L6.27455 10.7235L5.38718 15.5261H4.05615L5.19704 9.21039H7.54221L7.66897 13.1577L9.31692 9.21039H11.7255L10.5212 15.5261Z" fill="white"/>
<path d="M27.2544 15.5263C26.8741 15.6579 26.4938 15.7237 26.1769 15.7237C25.4163 15.7237 24.9727 15.3289 24.9727 14.6052C24.9727 14.4737 24.9726 14.2763 25.036 14.1447L25.0994 13.6184L25.1628 13.2237L25.86 9.27631H27.3178L27.1277 10.4605H27.8883L27.6981 11.7105H26.9375L26.5572 13.8816C26.5572 13.9473 26.5572 14.0789 26.5572 14.0789C26.5572 14.3421 26.7474 14.4737 27.0643 14.4737C27.2544 14.4737 27.3812 14.4737 27.4446 14.4079L27.2544 15.5263Z" fill="white"/>
<path d="M31.5647 10.4605C31.4379 10.3947 31.4379 10.3947 31.3745 10.3947C31.3111 10.3947 31.2478 10.3947 31.2478 10.3947C31.1844 10.3947 31.121 10.3947 31.0576 10.3947C30.5506 10.3947 30.2337 10.5921 29.7266 11.25L29.8533 10.4605H28.6491L27.7617 15.5921H29.2829C29.79 12.4342 30.0435 11.9079 30.7407 11.9079C30.8041 11.9079 30.8675 11.9079 30.9309 11.9079L31.121 11.9737L31.5647 10.4605Z" fill="white"/>
<path d="M21.296 12.0393C21.296 12.6972 21.6763 13.1577 22.4369 13.4866C23.0708 13.7498 23.1341 13.8156 23.1341 14.0787C23.1341 14.4077 22.8806 14.5392 22.2468 14.5392C21.8031 14.5392 21.3594 14.4735 20.9157 14.3419L20.7256 15.5261H20.789L21.0425 15.5919C21.1059 15.5919 21.296 15.6577 21.4228 15.6577C21.8031 15.6577 22.0566 15.7235 22.2468 15.7235C23.8313 15.7235 24.5919 15.1971 24.5919 14.0129C24.5919 13.2893 24.275 12.8945 23.5144 12.5656C22.8806 12.3024 22.8172 12.2366 22.8172 11.9735C22.8172 11.7103 23.0708 11.5787 23.5778 11.5787C23.8947 11.5787 24.275 11.5787 24.6553 11.6445L24.8455 10.4603C24.4652 10.3945 23.8947 10.3287 23.5144 10.3287C21.8665 10.3287 21.296 11.1182 21.296 12.0393Z" fill="white"/>
<path d="M14.3251 13.2893C14.1349 13.2893 14.0716 13.2893 14.0082 13.2893C13.1842 13.2893 12.7405 13.5524 12.7405 14.0787C12.7405 14.4077 12.9307 14.605 13.2476 14.605C13.818 14.5392 14.2617 14.0129 14.3251 13.2893ZM15.4026 15.5261H14.1349L14.1983 14.9998C13.818 15.3945 13.311 15.5919 12.6138 15.5919C11.7898 15.5919 11.2827 14.9998 11.2827 14.2103C11.2827 12.9603 12.2335 12.2366 13.8814 12.2366C14.0716 12.2366 14.2617 12.2366 14.5152 12.3024C14.5786 12.105 14.5786 12.0393 14.5786 11.9735C14.5786 11.6445 14.3251 11.5129 13.6279 11.5129C13.1842 11.5129 12.7405 11.5787 12.4236 11.6445L12.2335 11.7103L12.1067 11.7761L12.2968 10.5919C13.0574 10.3945 13.5011 10.3287 14.0716 10.3287C15.3392 10.3287 16.0364 10.8551 16.0364 11.8419C16.0364 12.105 16.0364 12.3024 15.9097 12.8287L15.5927 14.6708L15.5294 14.9998L15.466 15.2629V15.4603L15.4026 15.5261Z" fill="white"/>
<path d="M19.5205 12.3684C19.5205 12.2369 19.5205 12.1711 19.5205 12.1053C19.5205 11.7105 19.267 11.4474 18.8233 11.4474C18.3162 11.4474 17.9993 11.7763 17.8726 12.3684H19.5205ZM20.2811 15.4605C19.774 15.5921 19.267 15.6579 18.7599 15.6579C17.112 15.6579 16.2246 14.8684 16.2246 13.3553C16.2246 11.579 17.3021 10.2632 18.8233 10.2632C20.0276 10.2632 20.8516 10.9869 20.8516 12.1053C20.8516 12.5 20.7882 12.829 20.6614 13.3553H17.6824C17.6824 13.4211 17.6824 13.4869 17.6824 13.4869C17.6824 14.079 18.1261 14.4079 19.0135 14.4079C19.5205 14.4079 20.0276 14.2763 20.598 14.079L20.2811 15.4605Z" fill="white"/>
<path d="M34.6703 12.5656C34.6703 12.0393 34.4802 11.5129 33.8464 11.5129C33.0858 11.5129 32.6421 12.434 32.6421 13.2893C32.6421 14.0129 32.959 14.4735 33.5295 14.4735C33.8464 14.4735 34.5436 14.0129 34.6703 13.2235C34.6703 13.0261 34.6703 12.7629 34.6703 12.5656ZM36.2549 13.2235C36.0014 14.934 34.8605 15.7235 33.3393 15.7235C31.628 15.7235 30.9941 14.6708 30.9941 13.355C30.9941 11.5129 32.135 10.3287 33.9097 10.3287C35.4943 10.3287 36.2549 11.3156 36.2549 12.6314C36.3183 12.8945 36.3183 12.8945 36.2549 13.2235Z" fill="white"/>
</svg>
