<svg width="40" height="25" viewBox="0 0 40 25" fill="none" xmlns="http://www.w3.org/2000/svg">
<path d="M40 12.5C40 19.359 34.6462 25 28 25C21.4154 25 16 19.359 16 12.5C16 5.64103 21.3538 0 27.9385 0C34.6462 0 40 5.64103 40 12.5Z" fill="var(--color-pay, #F9B50B)"/>
<path d="M23.9385 12.5641C23.9385 11.6667 23.8154 10.7692 23.6923 9.9359H16.3077C16.3692 9.48718 16.4923 9.10256 16.6154 8.58974H23.2C23.0769 8.14103 22.8923 7.69231 22.7077 7.24359H17.1077C17.2923 6.79487 17.5385 6.41026 17.7846 5.89744H22.0308C21.7846 5.44872 21.4769 5 21.1077 4.55128H18.7692C19.1385 4.10256 19.5077 3.71795 20 3.26923C17.9077 1.21795 15.0769 0 11.9385 0C5.41538 0.192308 0 5.64103 0 12.5C0 19.359 5.35384 25 12 25C15.1385 25 17.9077 23.718 20.0615 21.7308C20.4923 21.3462 20.8615 20.8974 21.2923 20.3846H18.8308C18.5231 20 18.2154 19.5513 17.9692 19.1026H22.1538C22.4 18.7179 22.6461 18.2692 22.8308 17.7564H17.2308C17.0461 17.3718 16.8615 16.9231 16.7385 16.4103H23.3231C23.6923 15.2564 23.9385 13.9744 23.9385 12.5641Z" fill="var(--color-pay, #C8191C)"/>
<path d="M16.2465 15.7054L16.4312 14.5516C16.3696 14.5516 16.2465 14.6157 16.1235 14.6157C15.6927 14.6157 15.6312 14.3592 15.6927 14.231L16.0619 11.9234H16.7389L16.9235 10.6413H16.3081L16.4312 9.87207H15.1389C15.1389 9.87207 14.4004 14.231 14.4004 14.7439C14.4004 15.5131 14.8312 15.8977 15.4465 15.8977C15.8158 15.8977 16.1235 15.7695 16.2465 15.7054Z" fill="white"/>
<path d="M16.6758 13.5897C16.6758 15.4487 17.9065 15.8974 18.8912 15.8974C19.8142 15.8974 20.245 15.7051 20.245 15.7051L20.4912 14.423C20.4912 14.423 19.8142 14.7435 19.1373 14.7435C17.7219 14.7435 17.9681 13.6538 17.9681 13.6538H20.5527C20.5527 13.6538 20.7373 12.8204 20.7373 12.4358C20.7373 11.6025 20.3065 10.5128 18.8912 10.5128C17.6604 10.4487 16.6758 11.923 16.6758 13.5897ZM18.8912 11.6666C19.5681 11.6666 19.445 12.4999 19.445 12.564H18.0296C18.0912 12.4999 18.2142 11.6666 18.8912 11.6666Z" fill="white"/>
<path d="M26.953 15.7053L27.1992 14.231C27.1992 14.231 26.5838 14.5515 26.0915 14.5515C25.2299 14.5515 24.7992 13.8463 24.7992 13.013C24.7992 11.4104 25.5376 10.5771 26.4607 10.5771C27.0761 10.5771 27.6299 10.9617 27.6299 10.9617L27.8145 9.55147C27.8145 9.55147 27.0761 9.23096 26.3376 9.23096C24.8607 9.23096 23.4453 10.5771 23.4453 13.0771C23.4453 14.7438 24.1838 15.8335 25.7222 15.8335C26.2761 15.8976 26.953 15.7053 26.953 15.7053Z" fill="white"/>
<path d="M9.29258 10.4487C8.43104 10.4487 7.75412 10.7051 7.75412 10.7051L7.5695 11.859C7.5695 11.859 8.12335 11.6026 8.98489 11.6026C9.41566 11.6026 9.78489 11.6667 9.78489 12.0513C9.78489 12.3077 9.72335 12.3718 9.72335 12.3718H9.1695C8.06181 12.3718 6.89258 12.8205 6.89258 14.359C6.89258 15.5769 7.63104 15.8333 8.12335 15.8333C8.98489 15.8333 9.41566 15.2564 9.4772 15.2564L9.41566 15.7692H10.4618L10.9541 12.1154C10.9541 10.5128 9.72335 10.4487 9.29258 10.4487ZM9.53873 13.3974C9.53873 13.5898 9.41566 14.6795 8.6772 14.6795C8.30796 14.6795 8.18489 14.359 8.18489 14.1667C8.18489 13.8462 8.3695 13.3974 9.35412 13.3974C9.4772 13.3974 9.53873 13.3974 9.53873 13.3974Z" fill="white"/>
<path d="M12.1849 15.8335C12.4926 15.8335 14.0926 15.8976 14.0926 14.1027C14.0926 12.436 12.5542 12.7566 12.5542 12.1155C12.5542 11.795 12.8003 11.6668 13.2311 11.6668C13.4157 11.6668 14.0926 11.7309 14.0926 11.7309L14.2772 10.513C14.2772 10.513 13.8465 10.3848 13.0465 10.3848C12.1234 10.3848 11.1388 10.7694 11.1388 12.1155C11.1388 13.654 12.7388 13.5258 12.7388 14.1027C12.7388 14.4873 12.308 14.5514 12.0003 14.5514C11.4465 14.5514 10.8311 14.3591 10.8311 14.3591L10.6465 15.5771C10.7696 15.7053 11.1388 15.8335 12.1849 15.8335Z" fill="white"/>
<path d="M37.539 9.42285L37.2928 11.2177C37.2928 11.2177 36.8005 10.5767 36.0621 10.5767C34.8928 10.5767 33.9082 12.0511 33.9082 13.7818C33.9082 14.8716 34.4005 15.9613 35.5082 15.9613C36.2467 15.9613 36.739 15.4485 36.739 15.4485L36.6774 15.8972H37.9697L38.8928 9.55106L37.539 9.42285ZM36.9236 12.8844C36.9236 13.5895 36.6159 14.5511 35.8774 14.5511C35.4467 14.5511 35.2005 14.1664 35.2005 13.4613C35.2005 12.3716 35.6313 11.7305 36.2467 11.7305C36.6774 11.7946 36.9236 12.1152 36.9236 12.8844Z" fill="white"/>
<path d="M2.33819 15.769L3.07665 11.0254L3.19973 15.769H4.06127L5.72281 11.0254L5.04588 15.769H6.39973L7.44588 9.42285H5.35358L4.06127 13.3331L3.99973 9.42285H2.15358L1.10742 15.769H2.33819Z" fill="white"/>
<path d="M22.0306 15.7695C22.3998 13.59 22.4614 11.7951 23.3845 12.1156C23.5075 11.2823 23.6922 10.8977 23.8152 10.5771H23.5691C23.0152 10.5771 22.5229 11.3464 22.5229 11.3464L22.646 10.6413H21.4152L20.6152 15.7695H22.0306V15.7695Z" fill="white"/>
<path d="M29.9078 10.4487C29.0463 10.4487 28.3694 10.7051 28.3694 10.7051L28.1847 11.859C28.1847 11.859 28.7386 11.6026 29.6001 11.6026C30.0309 11.6026 30.4001 11.6667 30.4001 12.0513C30.4001 12.3077 30.3386 12.3718 30.3386 12.3718H29.7847C28.677 12.3718 27.5078 12.8205 27.5078 14.359C27.5078 15.5769 28.2463 15.8333 28.7386 15.8333C29.6001 15.8333 30.0309 15.2564 30.0924 15.2564L30.0309 15.7692H31.2001L31.6924 12.1154C31.6924 10.5128 30.3386 10.4487 29.9078 10.4487ZM30.2155 13.3974C30.2155 13.5898 30.0924 14.6795 29.354 14.6795C28.9847 14.6795 28.8617 14.359 28.8617 14.1667C28.8617 13.8462 29.0463 13.3974 30.0309 13.3974C30.154 13.3974 30.154 13.3974 30.2155 13.3974Z" fill="white"/>
<path d="M32.6771 15.7695C33.0463 13.59 33.1079 11.7951 34.0309 12.1156C34.154 11.2823 34.3386 10.8977 34.4617 10.5771H34.2156C33.6617 10.5771 33.1694 11.3464 33.1694 11.3464L33.2925 10.6413H32.0617L31.2617 15.7695H32.6771V15.7695Z" fill="white"/>
</svg>
