<svg width="40" height="25" viewBox="0 0 40 25" fill="none" xmlns="http://www.w3.org/2000/svg">
<path d="M39.9995 12.5C39.9995 19.359 34.6457 25 27.9995 25C21.4149 25 15.9995 19.359 15.9995 12.5C15.9995 5.64103 21.3534 0 27.938 0C34.6457 0 39.9995 5.64103 39.9995 12.5Z" fill="#333333"/>
<path d="M23.938 12.5641C23.938 11.6667 23.8149 10.7692 23.6918 9.9359H16.3072C16.3687 9.48718 16.4918 9.10256 16.6149 8.58974H23.1995C23.0764 8.14103 22.8918 7.69231 22.7072 7.24359H17.1072C17.2918 6.79487 17.538 6.41026 17.7841 5.89744H22.0303C21.7841 5.44872 21.4764 5 21.1072 4.55128H18.7687C19.138 4.10256 19.5072 3.71795 19.9995 3.26923C17.9072 1.21795 15.0764 0 11.938 0C5.41489 0.192308 -0.000488281 5.64103 -0.000488281 12.5C-0.000488281 19.359 5.35336 25 11.9995 25C15.138 25 17.9072 23.718 20.061 21.7308C20.4918 21.3462 20.861 20.8974 21.2918 20.3846H18.8303C18.5226 20 18.2149 19.5513 17.9687 19.1026H22.1534C22.3995 18.7179 22.6457 18.2692 22.8303 17.7564H17.2303C17.0457 17.3718 16.861 16.9231 16.738 16.4103H23.3226C23.6918 15.2564 23.938 13.9744 23.938 12.5641Z" fill="#333333"/>
<path d="M16.2461 15.7052L16.4307 14.5513C16.3691 14.5513 16.2461 14.6154 16.123 14.6154C15.6922 14.6154 15.6307 14.359 15.6922 14.2308L16.0614 11.9231H16.7384L16.923 10.6411H16.3076L16.4307 9.87183H15.1384C15.1384 9.87183 14.3999 14.2308 14.3999 14.7436C14.3999 15.5128 14.8307 15.8975 15.4461 15.8975C15.8153 15.8975 16.123 15.7693 16.2461 15.7052Z" fill="white"/>
<path d="M16.6753 13.5897C16.6753 15.4487 17.9061 15.8974 18.8907 15.8974C19.8138 15.8974 20.2445 15.7051 20.2445 15.7051L20.4907 14.4231C20.4907 14.4231 19.8138 14.7436 19.1368 14.7436C17.7214 14.7436 17.9676 13.6538 17.9676 13.6538H20.5522C20.5522 13.6538 20.7368 12.8205 20.7368 12.4359C20.7368 11.6026 20.3061 10.5128 18.8907 10.5128C17.6599 10.4487 16.6753 11.9231 16.6753 13.5897ZM18.8907 11.6667C19.5676 11.6667 19.4445 12.5 19.4445 12.5641H18.0291C18.0907 12.5 18.2138 11.6667 18.8907 11.6667Z" fill="white"/>
<path d="M26.9525 15.7051L27.1987 14.2308C27.1987 14.2308 26.5833 14.5513 26.091 14.5513C25.2294 14.5513 24.7987 13.8462 24.7987 13.0128C24.7987 11.4103 25.5371 10.5769 26.4602 10.5769C27.0756 10.5769 27.6294 10.9615 27.6294 10.9615L27.814 9.55129C27.814 9.55129 27.0756 9.23077 26.3371 9.23077C24.8602 9.23077 23.4448 10.5769 23.4448 13.0769C23.4448 14.7436 24.1833 15.8333 25.7217 15.8333C26.2756 15.8974 26.9525 15.7051 26.9525 15.7051Z" fill="white"/>
<path d="M9.29209 10.4487C8.43055 10.4487 7.75363 10.7051 7.75363 10.7051L7.56901 11.859C7.56901 11.859 8.12286 11.6026 8.9844 11.6026C9.41517 11.6026 9.7844 11.6667 9.7844 12.0513C9.7844 12.3077 9.72286 12.3718 9.72286 12.3718H9.16902C8.06132 12.3718 6.89209 12.8205 6.89209 14.359C6.89209 15.5769 7.63055 15.8333 8.12286 15.8333C8.9844 15.8333 9.41517 15.2564 9.47671 15.2564L9.41517 15.7692H10.4613L10.9536 12.1154C10.9536 10.5128 9.72286 10.4487 9.29209 10.4487ZM9.53825 13.3974C9.53825 13.5898 9.41517 14.6795 8.67671 14.6795C8.30748 14.6795 8.1844 14.359 8.1844 14.1667C8.1844 13.8462 8.36901 13.3974 9.35363 13.3974C9.47671 13.3974 9.53825 13.3974 9.53825 13.3974Z" fill="white"/>
<path d="M12.1845 15.8334C12.4921 15.8334 14.0921 15.8975 14.0921 14.1026C14.0921 12.4359 12.5537 12.7564 12.5537 12.1154C12.5537 11.7949 12.7998 11.6667 13.2306 11.6667C13.4152 11.6667 14.0921 11.7308 14.0921 11.7308L14.2768 10.5128C14.2768 10.5128 13.846 10.3846 13.046 10.3846C12.1229 10.3846 11.1383 10.7693 11.1383 12.1154C11.1383 13.6539 12.7383 13.5257 12.7383 14.1026C12.7383 14.4872 12.3075 14.5513 11.9998 14.5513C11.446 14.5513 10.8306 14.359 10.8306 14.359L10.646 15.577C10.7691 15.7052 11.1383 15.8334 12.1845 15.8334Z" fill="white"/>
<path d="M37.5385 9.42303L37.2923 11.2179C37.2923 11.2179 36.8 10.5769 36.0616 10.5769C34.8923 10.5769 33.9077 12.0512 33.9077 13.782C33.9077 14.8718 34.4 15.9615 35.5077 15.9615C36.2462 15.9615 36.7385 15.4487 36.7385 15.4487L36.6769 15.8974H37.9693L38.8923 9.55124L37.5385 9.42303ZM36.9231 12.8846C36.9231 13.5897 36.6154 14.5512 35.8769 14.5512C35.4462 14.5512 35.2 14.1666 35.2 13.4615C35.2 12.3718 35.6308 11.7307 36.2462 11.7307C36.6769 11.7948 36.9231 12.1153 36.9231 12.8846Z" fill="white"/>
<path d="M2.3377 15.7692L3.07616 11.0256L3.19924 15.7692H4.06078L5.72232 11.0256L5.0454 15.7692H6.39924L7.4454 9.42303H5.35309L4.06078 13.3333L3.99924 9.42303H2.15309L1.10693 15.7692H2.3377Z" fill="white"/>
<path d="M22.0301 15.7692C22.3994 13.5897 22.4609 11.7949 23.384 12.1154C23.5071 11.282 23.6917 10.8974 23.8147 10.5769H23.5686C23.0147 10.5769 22.5224 11.3461 22.5224 11.3461L22.6455 10.641H21.4147L20.6147 15.7692H22.0301V15.7692Z" fill="white"/>
<path d="M29.9073 10.4487C29.0458 10.4487 28.3689 10.7051 28.3689 10.7051L28.1842 11.859C28.1842 11.859 28.7381 11.6026 29.5996 11.6026C30.0304 11.6026 30.3996 11.6667 30.3996 12.0513C30.3996 12.3077 30.3381 12.3718 30.3381 12.3718H29.7842C28.6766 12.3718 27.5073 12.8205 27.5073 14.359C27.5073 15.5769 28.2458 15.8333 28.7381 15.8333C29.5996 15.8333 30.0304 15.2564 30.0919 15.2564L30.0304 15.7692H31.1996L31.6919 12.1154C31.6919 10.5128 30.3381 10.4487 29.9073 10.4487ZM30.215 13.3974C30.215 13.5898 30.0919 14.6795 29.3535 14.6795C28.9842 14.6795 28.8612 14.359 28.8612 14.1667C28.8612 13.8462 29.0458 13.3974 30.0304 13.3974C30.1535 13.3974 30.1535 13.3974 30.215 13.3974Z" fill="white"/>
<path d="M32.6766 15.7692C33.0458 13.5897 33.1074 11.7949 34.0305 12.1154C34.1535 11.282 34.3382 10.8974 34.4612 10.5769H34.2151C33.6612 10.5769 33.1689 11.3461 33.1689 11.3461L33.292 10.641H32.0612L31.2612 15.7692H32.6766V15.7692Z" fill="white"/>
</svg>
