<svg width="54" height="16" viewBox="0 0 54 16" fill="none" xmlns="http://www.w3.org/2000/svg">
<path d="M48.448 0H38.0518C38.6574 3.50968 41.9882 6.81292 45.6219 6.81292H53.8985C53.9994 6.50324 53.9994 5.9871 53.9994 5.67742C53.9994 2.58065 51.476 0 48.448 0Z" fill="#333333"/>
<path d="M38.9609 7.43225V16H44.0077V11.4581H48.4488C50.8712 11.4581 52.9909 9.70322 53.6974 7.43225H38.9609Z" fill="#333333"/>
<path d="M21.1963 0V15.8968H25.6374C25.6374 15.8968 26.7477 15.8968 27.3533 14.7613C30.3813 8.67098 31.2897 6.81292 31.2897 6.81292H31.8953V15.8968H36.9421V0H32.501C32.501 0 31.3907 0.103232 30.7851 1.13549C28.2617 6.40001 26.8486 9.08388 26.8486 9.08388H26.243V0H21.1963Z" fill="#333333"/>
<path d="M0 15.999V0.102295H5.04674C5.04674 0.102295 6.45984 0.102292 7.26731 2.37326C9.28601 8.36035 9.48789 9.18616 9.48789 9.18616C9.48789 9.18616 9.89161 7.74099 11.7084 2.37326C12.5159 0.102292 13.929 0.102295 13.929 0.102295H18.9758V15.999H13.929V7.43133H13.3234L10.4972 15.999H8.27666L5.4505 7.43133H4.84489V15.999H0Z" fill="#333333"/>
</svg>
