<svg width="18" height="18" viewBox="0 0 18 18" fill="none" xmlns="http://www.w3.org/2000/svg">
<g clip-path="url(#clip0)">
<path d="M4.11128 1.49403C4.04487 1.40859 3.96104 1.33827 3.86536 1.28773C3.76968 1.23719 3.66434 1.20758 3.55634 1.20088C3.44834 1.19417 3.34015 1.21053 3.23895 1.24885C3.13776 1.28717 3.04587 1.34659 2.9694 1.42315L1.80615 2.58753C1.26278 3.13203 1.06253 3.90265 1.2999 4.57878C2.28511 7.37731 3.88774 9.91813 5.9889 12.0128C8.08357 14.1139 10.6244 15.7165 13.4229 16.7018C14.099 16.9391 14.8697 16.7389 15.4142 16.1955L16.5774 15.0323C16.654 14.9558 16.7134 14.8639 16.7517 14.7627C16.79 14.6615 16.8064 14.5533 16.7997 14.4453C16.793 14.3373 16.7634 14.232 16.7128 14.1363C16.6623 14.0406 16.592 13.9568 16.5065 13.8904L13.9112 11.8721C13.8199 11.8014 13.7137 11.7522 13.6007 11.7284C13.4877 11.7047 13.3707 11.7069 13.2587 11.7349L10.7949 12.3503C10.466 12.4325 10.1215 12.4281 9.79483 12.3376C9.46815 12.2471 9.17048 12.0736 8.93078 11.8339L6.16778 9.06977C5.92789 8.83019 5.75415 8.53257 5.66346 8.20589C5.57277 7.87921 5.56823 7.53461 5.65028 7.20565L6.26678 4.7419C6.2948 4.62985 6.29701 4.51289 6.27323 4.39986C6.24946 4.28683 6.20032 4.18067 6.12953 4.0894L4.11128 1.49403ZM2.12003 0.574902C2.3169 0.37797 2.55341 0.225173 2.81386 0.126658C3.07431 0.0281428 3.35274 -0.013837 3.63066 0.00350636C3.90858 0.0208497 4.17963 0.0971192 4.42581 0.22725C4.67199 0.357382 4.88767 0.538397 5.05853 0.758277L7.07678 3.35253C7.4469 3.8284 7.57741 4.44828 7.43116 5.03328L6.81578 7.49703C6.78396 7.62463 6.78568 7.7583 6.82077 7.88505C6.85586 8.0118 6.92312 8.12732 7.01603 8.2204L9.78015 10.9845C9.87335 11.0776 9.98906 11.145 10.116 11.1801C10.243 11.2152 10.3769 11.2168 10.5047 11.1848L12.9673 10.5694C13.256 10.4972 13.5573 10.4916 13.8485 10.553C14.1396 10.6144 14.4131 10.7412 14.648 10.9238L17.2423 12.942C18.1749 13.6676 18.2604 15.0458 17.4257 15.8794L16.2624 17.0426C15.4299 17.8751 14.1857 18.2408 13.0258 17.8324C10.0571 16.7879 7.36171 15.0883 5.13953 12.8599C2.91123 10.638 1.21171 7.94304 0.16703 4.97478C-0.24022 3.81603 0.125405 2.57065 0.957905 1.73815L2.12115 0.574902H2.12003Z" fill="#00AB44"/>
</g>
<defs>
<clipPath id="clip0">
<rect width="18" height="18" fill="white"/>
</clipPath>
</defs>
</svg>
