<svg width="20" height="21" viewBox="0 0 20 21" fill="none" xmlns="http://www.w3.org/2000/svg">
<path fill-rule="evenodd" clip-rule="evenodd" d="M5.41406 4.88261C5.54529 4.75158 5.70286 4.64992 5.87634 4.58439C6.04982 4.51886 6.23525 4.49095 6.42033 4.50251C6.60541 4.51407 6.78593 4.56484 6.94991 4.65145C7.11389 4.73805 7.25759 4.85852 7.3715 5.00487L8.71771 6.73445C8.96445 7.05171 9.05145 7.46498 8.95395 7.855L8.54371 9.49758C8.5225 9.58265 8.52365 9.67177 8.54704 9.75627C8.57043 9.84077 8.61527 9.91779 8.67721 9.97985L10.5199 11.8227C10.582 11.8848 10.6592 11.9297 10.7438 11.9531C10.8284 11.9765 10.9177 11.9775 11.0029 11.9562L12.6446 11.5459C12.837 11.4978 13.0379 11.4941 13.232 11.535C13.4261 11.5759 13.6084 11.6604 13.765 11.7822L15.4945 13.1277C16.1162 13.6115 16.1732 14.5303 15.6167 15.0861L14.8413 15.8616C14.2863 16.4166 13.4568 16.6604 12.6836 16.3881C10.7045 15.6918 8.90765 14.5587 7.42625 13.073C5.94076 11.5917 4.80778 9.79493 4.11135 7.816C3.83986 7.04346 4.0836 6.21318 4.63858 5.65815L5.41406 4.88261Z" fill="#00AB44"/>
</svg>
