<svg width="56" height="17" viewBox="0 0 56 17" fill="none" xmlns="http://www.w3.org/2000/svg">
<path d="M52.2341 0.242676H48.7137C47.6493 0.242676 46.8306 0.566485 46.3394 1.61887L39.626 16.757H44.3745C44.3745 16.757 45.1932 14.7332 45.357 14.2474C45.8482 14.2474 50.5148 14.2474 51.1698 14.2474C51.3335 14.8141 51.7429 16.676 51.7429 16.676H56.0002L52.2341 0.242676ZM46.6669 10.8474C47.0762 9.87601 48.4681 6.23315 48.4681 6.23315C48.4681 6.31411 48.8774 5.26172 49.0412 4.69506L49.3686 6.1522C49.3686 6.1522 50.2692 10.1189 50.433 10.9284H46.6669V10.8474Z" fill="#3362AB"/>
<path d="M39.9531 11.3333C39.9531 14.7333 36.8419 17 32.0116 17C29.9648 17 27.9999 16.5952 26.9355 16.1095L27.5905 12.3857L28.1636 12.6286C29.6373 13.2762 30.6197 13.519 32.4209 13.519C33.7308 13.519 35.1227 13.0333 35.1227 11.9C35.1227 11.1714 34.5496 10.6857 32.7484 9.87619C31.0291 9.06667 28.7367 7.77143 28.7367 5.42381C28.7367 2.18571 31.9297 0 36.4326 0C38.1519 0 39.6256 0.32381 40.5262 0.728571L39.8712 4.29048L39.5437 3.96667C38.725 3.64286 37.6607 3.31905 36.1051 3.31905C34.3858 3.4 33.5671 4.12857 33.5671 4.77619C33.5671 5.50476 34.5496 6.07143 36.1051 6.8C38.725 8.01429 39.9531 9.39048 39.9531 11.3333Z" fill="#3362AB"/>
<path d="M0 0.404864L0.0818711 0.0810547H7.12278C8.10524 0.0810547 8.84208 0.404864 9.08769 1.45724L10.6432 8.74296C9.08769 4.85724 5.48536 1.7001 0 0.404864Z" fill="#F9B50B"/>
<path d="M20.5506 0.243062L13.4279 16.6764H8.59746L4.50391 2.91449C7.45127 4.7764 9.9074 7.69069 10.808 9.7145L11.2992 11.4145L15.7202 0.162109H20.5506V0.243062Z" fill="#3362AB"/>
<path d="M22.4319 0.162109H26.9348L24.0693 16.6764H19.5664L22.4319 0.162109Z" fill="#3362AB"/>
</svg>
