<svg width="56" height="17" viewBox="0 0 56 17" fill="none" xmlns="http://www.w3.org/2000/svg">
<path d="M52.2341 0.242859H48.7137C47.6493 0.242859 46.8306 0.566668 46.3394 1.61905L39.626 16.7571H44.3745C44.3745 16.7571 45.1932 14.7333 45.357 14.2476C45.8482 14.2476 50.5148 14.2476 51.1698 14.2476C51.3335 14.8143 51.7429 16.6762 51.7429 16.6762H56.0002L52.2341 0.242859ZM46.6669 10.8476C47.0762 9.87619 48.4681 6.23334 48.4681 6.23334C48.4681 6.31429 48.8774 5.26191 49.0412 4.69524L49.3686 6.15238C49.3686 6.15238 50.2692 10.1191 50.433 10.9286H46.6669V10.8476Z" fill="#333333"/>
<path d="M39.9535 11.3333C39.9535 14.7333 36.8424 17 32.012 17C29.9653 17 28.0004 16.5952 26.936 16.1095L27.591 12.3857L28.1641 12.6286C29.6378 13.2762 30.6202 13.519 32.4214 13.519C33.7313 13.519 35.1231 13.0333 35.1231 11.9C35.1231 11.1714 34.55 10.6857 32.7489 9.87619C31.0296 9.06667 28.7372 7.77143 28.7372 5.42381C28.7372 2.18571 31.9302 0 36.4331 0C38.1524 0 39.6261 0.32381 40.5266 0.728571L39.8717 4.29048L39.5442 3.96667C38.7255 3.64286 37.6611 3.31905 36.1056 3.31905C34.3863 3.4 33.5676 4.12857 33.5676 4.77619C33.5676 5.50476 34.55 6.07143 36.1056 6.8C38.7255 8.01429 39.9535 9.39048 39.9535 11.3333Z" fill="#333333"/>
<path d="M0 0.404925L0.0818711 0.0811157H7.12278C8.10524 0.0811157 8.84208 0.404925 9.08769 1.45731L10.6432 8.74302C9.08769 4.85731 5.48536 1.70016 0 0.404925Z" fill="#333333"/>
<path d="M20.5506 0.24294L13.4279 16.6763H8.59746L4.50391 2.91437C7.45127 4.77628 9.9074 7.69057 10.808 9.71438L11.2992 11.4144L15.7202 0.161987H20.5506V0.24294Z" fill="#333333"/>
<path d="M22.4319 0.161987H26.9348L24.0693 16.6763H19.5664L22.4319 0.161987Z" fill="#333333"/>
</svg>
