<svg width="30" height="18" viewBox="0 0 30 18" fill="none" xmlns="http://www.w3.org/2000/svg">
<path d="M24.8938 10.3215C24.4088 9.69147 24.5475 9.41119 24.8938 8.84804C24.9 8.84161 28.9038 3.15104 29.3163 1.22118L29.3188 1.2199C29.5238 0.516613 29.3188 -0.000244141 28.3275 -0.000244141H25.0475C24.2125 -0.000244141 23.8275 0.443327 23.6213 0.939613C23.6213 0.939613 21.9513 5.05133 19.5888 7.71661C18.8263 8.48676 18.4738 8.73361 18.0575 8.73361C17.8525 8.73361 17.5338 8.48676 17.5338 7.78347V1.2199C17.5338 0.37647 17.3 -0.000244141 16.6088 -0.000244141H11.4513C10.9275 -0.000244141 10.6163 0.393185 10.6163 0.759613C10.6163 1.55933 11.7975 1.74318 11.92 3.99319V8.87504C11.92 9.94476 11.7313 10.1415 11.3125 10.1415C10.1975 10.1415 7.49125 6.01304 5.8875 1.28804C5.56375 0.371327 5.2475 0.00104148 4.40625 0.00104148H1.125C0.18875 0.00104148 0 0.444613 0 0.940899C0 1.81776 1.115 6.17761 5.185 11.9376C7.8975 15.8693 11.7175 17.9998 15.1925 17.9998C17.2813 17.9998 17.5363 17.5266 17.5363 16.7128C17.5363 12.9559 17.3475 12.601 18.3938 12.601C18.8788 12.601 19.7138 12.8479 21.6638 14.7443C23.8925 16.993 24.2588 17.9998 25.5063 17.9998H28.7863C29.7213 17.9998 30.195 17.5266 29.9225 16.5932C29.2988 14.6299 25.0838 10.5915 24.8938 10.3215V10.3215Z" fill="var(--social, white)"/>
</svg>
