<?xml version="1.0" encoding="utf-8"?><svg viewBox="0 0 163 163" xmlns="http://www.w3.org/2000/svg" xmlns:xlink="http://www.w3.org/1999/xlink"><style>:root>svg{display:none}:root>svg:target{display:block}</style><svg fill="none" viewBox="0 0 45 29" id="applePay" xmlns="http://www.w3.org/2000/svg"><path fill-rule="evenodd" clip-rule="evenodd" d="M13.417 8.7c.415-.506.695-1.21.62-1.913-.6.025-1.327.404-1.754.91-.387.447-.722 1.165-.63 1.853.668.052 1.348-.342 1.764-.85zm1.724 4.456c-.013-1.518 1.23-2.249 1.288-2.285-.702-1.027-1.79-1.17-2.177-1.185-.928-.093-1.812.55-2.28.55-.47 0-1.195-.536-1.965-.52-1.01.015-1.943.592-2.463 1.502-1.047 1.839-.266 4.554.756 6.04.501.729 1.096 1.547 1.88 1.517.756-.03 1.039-.492 1.951-.492.91-.001 1.168.49 1.963.477.812-.018 1.327-.743 1.824-1.475.572-.843.81-1.661.821-1.702-.016-.011-1.58-.612-1.598-2.427zm9.66-4.456a3.031 3.031 0 00-1.16-.679c-.462-.155-1.018-.234-1.651-.234-.406-.002-.811.02-1.214.064-.336.038-.671.085-1.005.142l-.098.017v10.673h.968v-4.496c.326.056.7.085 1.111.085.548 0 1.061-.07 1.526-.209a3.4 3.4 0 001.223-.642c.347-.292.625-.656.817-1.069.198-.423.298-.92.298-1.48 0-.462-.072-.878-.214-1.236a2.832 2.832 0 00-.601-.936zm-.89 4.077c-.496.42-1.2.632-2.092.632-.246 0-.478-.011-.691-.03a3.228 3.228 0 01-.486-.083V8.757c.128-.024.286-.046.472-.066.236-.025.52-.038.845-.038.374-.004.746.045 1.106.145.307.085.596.227.85.419.233.181.416.417.542.7.128.288.192.631.192 1.02 0 .806-.249 1.426-.738 1.84zm7.492 4.907c-.011-.302-.015-.606-.015-.908V13.81c0-.351-.036-.71-.105-1.066a2.717 2.717 0 00-.4-.994 2.25 2.25 0 00-.818-.73c-.344-.186-.792-.28-1.331-.28a4.22 4.22 0 00-1.142.153c-.381.11-.742.283-1.067.511l-.08.055.328.77.118-.08c.258-.174.54-.31.838-.401.3-.095.614-.143.928-.144.404 0 .726.074.956.219.233.147.41.329.523.541.118.22.195.453.23.695.036.252.053.477.053.67v.086c-1.434-.006-2.555.234-3.299.717-.78.506-1.177 1.227-1.177 2.141 0 .264.047.53.14.791.093.266.235.503.421.706.187.205.43.373.718.498.289.126.628.19 1.006.19a2.803 2.803 0 001.521-.42 2.92 2.92 0 00.712-.62h.037l.089.867h.933l-.026-.14a5.99 5.99 0 01-.091-.86zm-.983-1.52c0 .104-.025.246-.072.417-.063.185-.15.36-.26.522a1.99 1.99 0 01-1.014.77c-.25.083-.513.123-.776.119-.174 0-.346-.03-.51-.088a1.228 1.228 0 01-.73-.697 1.655 1.655 0 01-.115-.652c0-.417.111-.756.33-1.004.236-.264.533-.466.864-.589a4.406 4.406 0 011.166-.267c.37-.037.744-.053 1.116-.05v1.519zm7.552-5.252l-1.806 4.944c-.113.298-.218.599-.314.892a39.25 39.25 0 01-.135.416h-.034a33.315 33.315 0 00-.138-.432c-.094-.29-.195-.574-.298-.845l-1.932-4.975h-1.033l2.764 7.152c.072.172.083.251.083.283 0 .01-.003.068-.084.286a5.204 5.204 0 01-.587 1.097c-.221.303-.424.55-.605.732-.21.211-.426.384-.647.516-.225.133-.43.241-.612.323l-.104.047.337.823.107-.04a7.22 7.22 0 00.501-.23c.252-.126.531-.324.829-.592.264-.234.498-.5.697-.791.204-.295.409-.641.609-1.025.198-.384.396-.82.59-1.298.193-.48.4-1.017.614-1.594l2.232-5.689h-1.034zM40.97.604h.457c.126.001.251.003.377.006.229.006.498.019.756.066.24.043.443.11.639.21a2.1 2.1 0 01.92.928c.1.197.166.4.209.642.046.258.06.53.065.761.003.126.005.252.006.38v21.808c0 .126-.003.252-.006.378a5.185 5.185 0 01-.065.762 2.27 2.27 0 01-.21.641 2.118 2.118 0 01-1.558 1.139 5.14 5.14 0 01-.754.065c-.126.003-.252.005-.38.005H3.571c-.126 0-.252-.002-.375-.005a5.218 5.218 0 01-.756-.065 2.216 2.216 0 01-.64-.212 2.094 2.094 0 01-.92-.927 2.273 2.273 0 01-.208-.642 5.098 5.098 0 01-.066-.761 20.692 20.692 0 01-.005-.378V3.596c0-.126.002-.252.005-.379.006-.23.019-.5.066-.762a2.25 2.25 0 01.209-.642c.201-.4.524-.723.92-.926.2-.102.416-.173.638-.21.25-.041.503-.064.757-.066L3.57.605H40.97zm0-.604H3.568c-.13.001-.259.003-.388.007a5.67 5.67 0 00-.847.075A2.726 2.726 0 00.346 1.54a2.878 2.878 0 00-.265.81 5.703 5.703 0 00-.075.851c-.003.13-.005.26-.005.391L0 4.057v21.351c.001.13.003.261.007.391.007.284.024.57.075.852.05.285.133.55.264.81.259.513.673.93 1.183 1.19.258.133.521.216.804.268.28.05.564.066.847.074.13.004.258.006.388.006L4.03 29h36.94l.462-.001a21 21 0 00.388-.006c.282-.008.567-.024.847-.074.28-.05.55-.139.804-.268a2.7 2.7 0 001.183-1.19c.131-.26.214-.525.264-.81a5.71 5.71 0 00.075-.852l.006-.39.001-.466V4.057l-.001-.465c0-.13-.003-.261-.006-.391a5.71 5.71 0 00-.075-.852 2.872 2.872 0 00-.264-.81A2.713 2.713 0 0043.47.348a2.85 2.85 0 00-.804-.267 5.69 5.69 0 00-.847-.075c-.13-.004-.26-.005-.389-.006h-.461z" fill="#282828"/></svg><svg fill="none" viewBox="0 0 21 16" id="arrow" xmlns="http://www.w3.org/2000/svg"><path d="M20.707 8.707a1 1 0 000-1.414L14.343.929a1 1 0 10-1.414 1.414L18.586 8l-5.657 5.657a1 1 0 001.414 1.414l6.364-6.364zM0 9h20V7H0v2z" fill="#fff"/></svg><svg fill="none" viewBox="0 0 24 24" id="arrow-back" xmlns="http://www.w3.org/2000/svg"><path d="M13.83 19a1 1 0 01-.78-.37l-4.83-6a1 1 0 010-1.27l5-6a1.001 1.001 0 111.54 1.28L10.29 12l4.32 5.36a1.001 1.001 0 01-.78 1.64z" fill="var(--arrows-color, #DCDCDC)"/></svg><svg fill="none" viewBox="0 0 10 11" id="arrow-downward" xmlns="http://www.w3.org/2000/svg"><path d="M5 8.167a.417.417 0 01-.266-.096l-2.5-2.083a.417.417 0 11.533-.642L5 7.213l2.234-1.8a.417.417 0 01.587.062.417.417 0 01-.058.608l-2.5 2.013a.417.417 0 01-.263.07z" fill="#282828"/></svg><svg fill="none" viewBox="0 0 30 30" id="arrow-incircle" xmlns="http://www.w3.org/2000/svg"><circle r="14.5" transform="matrix(0 -1 -1 0 15 15)" fill="#00AB44" stroke="#00AB44"/><path d="M10.333 13.78a.669.669 0 00.247.52l4 3.22a.667.667 0 00.847 0l4-3.333a.667.667 0 10-.854-1.027L15 16.14l-3.573-2.88a.667.667 0 00-1.094.52z" fill="#fff"/></svg><svg fill="none" viewBox="0 0 24 24" id="attach" xmlns="http://www.w3.org/2000/svg"><path d="M11.772 3.743a6 6 0 018.66 8.302l-.19.197-8.8 8.798-.036.03a3.723 3.723 0 01-5.489-4.973.764.764 0 01.085-.13l.054-.06.086-.088.142-.148.002.003 7.436-7.454a.75.75 0 01.977-.074l.084.073a.75.75 0 01.074.976l-.073.084-7.594 7.613a2.23 2.23 0 003.174 3.106l8.832-8.83A4.502 4.502 0 0013 4.644l-.168.16-.013.014-9.536 9.536a.75.75 0 01-1.133-.977l.072-.084 9.549-9.55h.002-.001z" fill="#00AB44"/></svg><svg fill="none" viewBox="0 0 20 20" id="attention" xmlns="http://www.w3.org/2000/svg"><circle cx="10" cy="10" r="9.5" fill="#fff" stroke="#D70000"/><path d="M10.603 11.828H9.43L9.081 5h1.865l-.343 6.828zM9 13.968c0-.332.088-.582.263-.752.175-.174.424-.262.747-.262.319 0 .563.09.734.269.17.178.256.427.256.744 0 .318-.088.57-.263.758-.17.183-.413.275-.727.275-.319 0-.568-.09-.747-.268-.175-.18-.263-.434-.263-.765z" fill="#D70000"/></svg><svg fill="none" viewBox="0 0 30 30" id="bi_zoom-in" xmlns="http://www.w3.org/2000/svg"><g clip-path="url(#ahclip0)" fill="#00AB44"><path fill-rule="evenodd" clip-rule="evenodd" d="M12.188 22.5A10.311 10.311 0 0019.48 4.895 10.312 10.312 0 1012.187 22.5zm12.187-10.313a12.188 12.188 0 11-24.375 0 12.188 12.188 0 0124.375 0z"/><path d="M19.395 22.016c.056.075.116.147.184.216l7.218 7.219a1.875 1.875 0 102.654-2.652l-7.22-7.218a1.895 1.895 0 00-.215-.188 12.256 12.256 0 01-2.621 2.625v-.002z"/><path fill-rule="evenodd" clip-rule="evenodd" d="M12.188 5.625a.937.937 0 01.937.938v4.687h4.688a.938.938 0 010 1.875h-4.688v4.688a.938.938 0 01-1.875 0v-4.688H6.562a.938.938 0 010-1.875h4.688V6.562a.938.938 0 01.938-.937z"/></g><defs><clipPath id="ahclip0"><path fill="#fff" d="M0 0h30v30H0z"/></clipPath></defs></svg><svg fill="none" viewBox="0 0 20 20" id="calendar" xmlns="http://www.w3.org/2000/svg"><path d="M5.833 9.167H7.5v1.666H5.833V9.167zm0 3.333H7.5v1.667H5.833V12.5zm3.334-3.333h1.666v1.666H9.167V9.167zm0 3.333h1.666v1.667H9.167V12.5zM12.5 9.167h1.667v1.666H12.5V9.167zm0 3.333h1.667v1.667H12.5V12.5z" fill="#00AB44"/><path d="M4.167 18.333h11.666c.92 0 1.667-.747 1.667-1.666V5c0-.92-.747-1.667-1.667-1.667h-1.666V1.667H12.5v1.666h-5V1.667H5.833v1.666H4.167C3.247 3.333 2.5 4.081 2.5 5v11.667c0 .919.748 1.666 1.667 1.666zM15.833 6.667l.001 10H4.167v-10h11.666z" fill="#00AB44"/></svg><svg fill="none" viewBox="0 0 27 28" id="cart" xmlns="http://www.w3.org/2000/svg"><path d="M4.219 3.875a.844.844 0 100 1.688h.415a.844.844 0 01.81.612l2.676 9.366a2.531 2.531 0 002.434 1.834h7.71a2.531 2.531 0 002.35-1.591l2.488-6.22a1.689 1.689 0 00-1.566-2.314H7.506l-.44-1.539a2.531 2.531 0 00-2.432-1.836h-.415zm5.525 11.2L7.989 8.938h13.545l-2.487 6.22a.843.843 0 01-.783.53h-7.71a.844.844 0 01-.81-.613zM10.969 24.125a2.531 2.531 0 100-5.062 2.531 2.531 0 000 5.062zm0-1.688a.844.844 0 110-1.688.844.844 0 010 1.689zM17.719 24.125a2.531 2.531 0 100-5.062 2.531 2.531 0 000 5.062zm0-1.688a.844.844 0 110-1.688.844.844 0 010 1.689z" fill="var(--cart-color, #282828)"/></svg><svg fill="none" viewBox="0 0 27 26" id="close" xmlns="http://www.w3.org/2000/svg"><path d="M15.779 12.999l5.43-5.418a1.268 1.268 0 00-1.794-1.793l-5.417 5.43-5.416-5.43a1.268 1.268 0 10-1.793 1.793L12.218 13l-5.43 5.417a1.263 1.263 0 000 1.794 1.262 1.262 0 001.794 0l5.416-5.43 5.417 5.43a1.263 1.263 0 001.793 0 1.262 1.262 0 000-1.794L15.778 13z" fill="#282828"/></svg><svg fill="none" viewBox="0 0 163 163" id="dashed-circle" xmlns="http://www.w3.org/2000/svg"><rect x="162.608" y="162.608" width="162.217" height="162.217" rx="81.108" transform="rotate(-180 162.608 162.608)" stroke="#9899AC" stroke-width=".783" stroke-linecap="round" stroke-dasharray="7.83 7.83"/></svg><svg fill="none" viewBox="0 0 20 21" id="email" xmlns="http://www.w3.org/2000/svg"><path d="M13.5 6.5h-7A1.5 1.5 0 005 8v5a1.5 1.5 0 001.5 1.5h7A1.5 1.5 0 0015 13V8a1.5 1.5 0 00-1.5-1.5zm0 1l-3.25 2.235a.5.5 0 01-.5 0L6.5 7.5h7z" fill="#00AB44"/></svg><svg fill="none" viewBox="0 0 16 30" id="facebook" xmlns="http://www.w3.org/2000/svg"><path d="M13.079 4.982H16V.212c-.504-.065-2.237-.211-4.256-.211C2.502 0 5.017 9.813 4.65 11.25H0v5.332h4.648v13.418h5.698V16.584h4.46l.707-5.332h-5.168c.25-3.53-1.015-6.27 2.734-6.27z" fill="var(--social, white)"/></svg><svg fill="none" viewBox="0 0 32 32" id="file" xmlns="http://www.w3.org/2000/svg"><path d="M24.972 18.576L20.665 15.5a.615.615 0 10-.716 1.002l3.607 2.576-3.607 2.576a.615.615 0 00.715 1.002l4.308-3.077a.616.616 0 000-1.002zM16.807 14.009l-2.8 9.798 1.184.338 2.8-9.798-1.184-.338zM12.05 21.653l-3.606-2.576L12.05 16.5a.615.615 0 00-.715-1.002l-4.308 3.077a.616.616 0 000 1.002l4.308 3.077a.613.613 0 00.858-.143.615.615 0 00-.143-.859z" fill="#00AB44"/><path d="M27.52 8.66L19.366.189A.616.616 0 0018.923 0H6.773a2.466 2.466 0 00-2.466 2.46v27.08A2.466 2.466 0 006.773 32h18.452a2.466 2.466 0 002.466-2.46V9.088a.616.616 0 00-.172-.427zM19.075 1.66l6.692 6.954h-6.692V1.661zm7.384 27.88c0 .677-.554 1.228-1.235 1.228H6.773a1.233 1.233 0 01-1.236-1.228V2.459c0-.677.555-1.228 1.236-1.228h11.072v8c0 .34.276.615.616.615h8v19.695z" fill="#00AB44"/></svg><svg fill="none" viewBox="0 0 32 32" id="generate-pdf" xmlns="http://www.w3.org/2000/svg"><path d="M24 24v4H8v-4H6v4a2 2 0 002 2h16a2 2 0 002-2v-4h-2z" fill="#00AB44"/><path d="M21 21l-1.414-1.414L17 22.172V14h-2v8.172l-2.586-2.586L11 21l5 5 5-5zM28 4V2h-6v10h2V8h3V6h-3V4h4zM17 12h-4V2h4a3.003 3.003 0 013 3v4a3.003 3.003 0 01-3 3zm-2-2h2a1.001 1.001 0 001-1V5a1.001 1.001 0 00-1-1h-2v6zM9 2H4v10h2V9h3a2.003 2.003 0 002-2V4a2.002 2.002 0 00-2-2zM6 7V4h3l.001 3H6z" fill="#00AB44"/></svg><svg fill="none" viewBox="0 0 61 25" id="googlePay" xmlns="http://www.w3.org/2000/svg"><path d="M28.85 12.214v7.328h-2.252V1.445h5.974a5.252 5.252 0 012.086.384c.664.269 1.27.67 1.782 1.182.518.481.93 1.07 1.209 1.73.279.658.418 1.37.407 2.09a5.152 5.152 0 01-.4 2.102 5.011 5.011 0 01-1.216 1.739c-1.044 1.028-2.334 1.541-3.868 1.54H28.85v.002zm0-8.541V9.99h3.778c.414.013.826-.064 1.21-.225s.73-.403 1.018-.71a3.09 3.09 0 00.67-1.012 3.17 3.17 0 000-2.4 3.09 3.09 0 00-.67-1.012 2.939 2.939 0 00-1.014-.727 2.858 2.858 0 00-1.214-.233H28.85v.002zM43.246 6.755c1.665 0 2.98.46 3.943 1.378.963.918 1.444 2.177 1.444 3.777v7.632h-2.155v-1.719h-.098c-.933 1.415-2.173 2.123-3.722 2.123-1.321 0-2.427-.404-3.317-1.213a3.863 3.863 0 01-1-1.36 3.979 3.979 0 01-.334-1.672c0-1.282.469-2.3 1.407-3.057.938-.757 2.19-1.136 3.758-1.138 1.338 0 2.439.253 3.305.758v-.531a2.718 2.718 0 00-.241-1.137 2.637 2.637 0 00-.69-.92 3.134 3.134 0 00-2.174-.849c-1.258 0-2.254.548-2.987 1.644L38.4 9.18c1.091-1.617 2.706-2.426 4.845-2.426zm-2.914 8.996c-.002.296.065.588.195.852.13.263.32.491.552.664a2.693 2.693 0 001.75.607 3.536 3.536 0 002.534-1.086c.746-.725 1.12-1.575 1.12-2.552-.703-.577-1.682-.866-2.939-.866-.915 0-1.678.228-2.289.683-.617.462-.923 1.024-.923 1.698zM61 7.16L53.477 25h-2.325l2.79-6.242L48.999 7.16h2.449l3.574 8.895h.05l3.476-8.895H61z" fill="var(--color-pay, #5F6368)"/><path d="M19.746 10.634c0-.709-.058-1.416-.174-2.114h-9.5v4.004h5.441a4.902 4.902 0 01-.692 1.792 4.742 4.742 0 01-1.32 1.367v2.6h3.248c1.901-1.81 2.997-4.485 2.997-7.649z" fill="var(--color-pay, #4285F4)"/><path d="M10.073 20.794c2.718 0 5.007-.922 6.676-2.51l-3.247-2.6c-.904.633-2.068.994-3.43.994-2.627 0-4.857-1.828-5.655-4.291H1.072v2.678a10.282 10.282 0 003.714 4.181 9.842 9.842 0 005.287 1.548z" fill="var(--color-pay, #34A853)"/><path d="M4.418 12.387a6.419 6.419 0 010-3.98V5.73H1.073A10.67 10.67 0 000 10.397c0 1.621.367 3.22 1.073 4.669l3.345-2.679z" fill="var(--color-pay, #FBBC04)"/><path d="M10.073 4.116a5.377 5.377 0 013.864 1.56l2.875-2.968a9.515 9.515 0 00-6.74-2.707 9.842 9.842 0 00-5.286 1.547 10.282 10.282 0 00-3.714 4.18l3.346 2.68c.797-2.464 3.027-4.292 5.655-4.292z" fill="var(--color-pay, #EA4335)"/></svg><svg fill="none" viewBox="0 0 14 14" id="hamburger-button" xmlns="http://www.w3.org/2000/svg"><path fill-rule="evenodd" clip-rule="evenodd" d="M1.735 3.485c0-.322.262-.583.584-.583h9.333a.583.583 0 110 1.167H2.319a.583.583 0 01-.584-.584zM1.735 6.985c0-.322.262-.583.584-.583h9.333a.583.583 0 110 1.167H2.319a.583.583 0 01-.584-.584zM1.735 10.485c0-.322.262-.583.584-.583h9.333a.583.583 0 110 1.167H2.319a.583.583 0 01-.584-.584z" fill="#fff"/></svg><svg fill="none" viewBox="0 0 20 20" id="heart" xmlns="http://www.w3.org/2000/svg"><path d="M10 17l-.282-.236C3.648 11.814 2 10.071 2 7.242A4.221 4.221 0 016.235 3C8.165 3 9.247 4.084 10 4.933 10.753 4.084 11.835 3 13.765 3A4.221 4.221 0 0118 7.242c0 2.829-1.647 4.573-7.718 9.522L10 17zM6.235 3.943a3.277 3.277 0 00-3.294 3.3c0 2.403 1.506 4.006 7.059 8.531 5.553-4.525 7.059-6.128 7.059-8.532 0-1.838-1.459-3.3-3.294-3.3-1.647 0-2.542.99-3.247 1.792L10 6.347l-.518-.613c-.706-.801-1.6-1.791-3.247-1.791z" fill="var(--heart-stroke, #282828)"/><path d="M10 17l-.282-.236C3.648 11.814 2 10.071 2 7.242A4.221 4.221 0 016.235 3C8.165 3 9.247 4.084 10 4.933 10.753 4.084 11.835 3 13.765 3A4.221 4.221 0 0118 7.242c0 2.829-1.647 4.573-7.718 9.522L10 17zM6.235 3.943a3.277 3.277 0 00-3.294 3.3c0 2.403 1.506 4.006 7.059 8.531 5.553-4.525 7.059-6.128 7.059-8.532 0-1.838-1.459-3.3-3.294-3.3-1.647 0-2.542.99-3.247 1.792L10 6.347l-.518-.613c-.706-.801-1.6-1.791-3.247-1.791z" fill="var(--heart-fill, black)"/><path d="M6.235 3.943a3.277 3.277 0 00-3.294 3.3c0 2.403 1.506 4.006 7.059 8.531 5.553-4.525 7.059-6.128 7.059-8.532 0-1.838-1.459-3.3-3.294-3.3-1.647 0-2.542.99-3.247 1.792L10 6.347l-.518-.613c-.706-.801-1.6-1.791-3.247-1.791z" fill="var(--heart-fill, black)"/></svg><svg fill="none" viewBox="0 0 15 15" id="icon-gps-device" xmlns="http://www.w3.org/2000/svg"><path d="M11.363 3.68l-1.025.425-8.95 3.646-1.004.404.984.445 3.49 1.585 1.585 3.491.446.984.403-1.004 3.646-8.95.426-1.026zM9.675 5.37l-2.828 6.93-1.212-2.662-.073-.156-.155-.072-2.662-1.212 6.93-2.829z" fill="var(--gps, #282828)"/></svg><svg fill="none" viewBox="0 0 20 20" id="icons-search" xmlns="http://www.w3.org/2000/svg"><path d="M17.5 17.5l-3.738-3.745L17.5 17.5zm-1.666-8.75a7.083 7.083 0 11-14.167 0 7.083 7.083 0 0114.167 0v0z" stroke="var(--search, #929292)" stroke-width="2" stroke-linecap="round"/></svg><svg fill="none" viewBox="0 0 30 30" id="instagram" xmlns="http://www.w3.org/2000/svg"><path d="M15.001.015C8.857.015 3.023-.53.795 5.184c-.92 2.36-.787 5.425-.787 9.815 0 3.851-.124 7.471.787 9.813 2.223 5.718 8.105 5.17 14.203 5.17 5.883 0 11.95.612 14.205-5.17.922-2.384.787-5.404.787-9.813 0-5.854.323-9.633-2.518-12.47C24.595-.345 20.705.015 14.995.015H15zm-1.343 2.7c12.816-.02 14.447-1.444 13.547 18.333-.32 6.995-5.65 6.227-12.202 6.227-11.946 0-12.29-.341-12.29-12.283 0-12.08.948-12.27 10.945-12.28v.003zm9.347 2.487a1.798 1.798 0 10-.001 3.597 1.798 1.798 0 000-3.597zM15 7.304a7.697 7.697 0 00-7.699 7.695 7.696 7.696 0 007.7 7.693 7.694 7.694 0 100-15.388zm0 2.7c6.608 0 6.616 9.99 0 9.99-6.606 0-6.616-9.99 0-9.99z" fill="var(--social, white)"/></svg><svg fill="none" viewBox="0 0 20 21" id="location" xmlns="http://www.w3.org/2000/svg"><path d="M10 2.509c-2.762 0-5 2.229-5 4.99 0 4.774 5 11 5 11s5-6.227 5-11c0-2.76-2.238-4.99-5-4.99zm0 7.751a2.7 2.7 0 110-5.4 2.7 2.7 0 010 5.4z" fill="#00AB44"/></svg><svg fill="none" viewBox="0 0 41 25" id="maestro" xmlns="http://www.w3.org/2000/svg"><path d="M20.406 21.711a12.65 12.65 0 003.992-9.21c0-3.685-1.546-6.974-3.992-9.21-2.188-1.975-5.02-3.225-8.175-3.225C5.47.066 0 5.658 0 12.501 0 19.408 5.472 25 12.23 25c3.155-.066 5.988-1.316 8.176-3.29z" fill="var(--color-pay, #3362AB)"/><path d="M20.405 21.71a12.651 12.651 0 003.991-9.21c0-3.684-1.544-6.974-3.99-9.21" fill="var(--color-pay, #3362AB)"/><path d="M20.405 21.71a12.651 12.651 0 003.991-9.21c0-3.684-1.544-6.974-3.99-9.21" stroke="var(--color-pay, #3362AB)" stroke-width=".31"/><path d="M28.583 0c-3.154 0-6.051 1.25-8.176 3.224-.45.394-.837.855-1.223 1.315h2.447c.321.395.643.856.9 1.316H18.22a8.483 8.483 0 00-.708 1.316h5.729c.193.46.386.855.515 1.316h-6.76c-.128.46-.257.855-.386 1.316h7.468c.193.855.257 1.71.257 2.631 0 1.382-.193 2.698-.644 3.947h-6.759c.129.461.322.921.515 1.316h5.73c-.194.46-.451.921-.709 1.316h-4.313c.258.46.58.921.902 1.316h2.446c-.386.46-.773.92-1.223 1.316 2.188 1.973 5.02 3.223 8.175 3.223 6.76 0 12.167-5.592 12.167-12.5C40.814 5.592 35.342 0 28.583 0z" fill="var(--color-pay, #C8191C)"/><path d="M10.686 15.526H9.141l.901-4.868-2.06 4.868H6.632l-.258-4.802-.901 4.802H4.12L5.28 9.21H7.66l.128 3.948L9.463 9.21h2.446l-1.223 6.316zM27.68 15.526a3.5 3.5 0 01-1.094.198c-.772 0-1.223-.395-1.223-1.119 0-.131 0-.329.065-.46l.064-.527.064-.394.709-3.948h1.48l-.193 1.185h.772l-.193 1.25h-.772l-.386 2.17v.198c0 .263.193.395.515.395.193 0 .322 0 .386-.066l-.193 1.118zM32.058 10.46c-.129-.066-.13-.066-.193-.066h-.322c-.515 0-.837.198-1.352.856l.129-.79h-1.224l-.9 5.132h1.544c.515-3.158.773-3.684 1.48-3.684h.194l.193.066.45-1.514zM21.63 12.04c0 .657.385 1.118 1.158 1.447.644.263.708.328.708.592 0 .329-.258.46-.901.46-.45 0-.901-.066-1.352-.197l-.193 1.184h.064l.258.066c.064 0 .257.066.386.066.386 0 .644.065.837.065 1.61 0 2.382-.526 2.382-1.71 0-.724-.322-1.119-1.095-1.448-.644-.263-.708-.329-.708-.592 0-.263.258-.394.773-.394.322 0 .708 0 1.094.065l.193-1.184a9.403 9.403 0 00-1.352-.131c-1.674 0-2.253.79-2.253 1.71zM14.549 13.29h-.322c-.837 0-1.287.262-1.287.789 0 .329.193.526.515.526.579-.066 1.03-.592 1.094-1.316zm1.094 2.236h-1.287L14.42 15c-.386.394-.901.592-1.61.592-.836 0-1.351-.592-1.351-1.382 0-1.25.966-1.974 2.64-1.974.192 0 .386 0 .643.066.064-.197.064-.263.064-.329 0-.329-.257-.46-.965-.46-.45 0-.901.066-1.223.131l-.193.066-.13.066.194-1.184c.772-.198 1.223-.263 1.802-.263 1.288 0 1.996.526 1.996 1.513 0 .263 0 .46-.129.987l-.322 1.842-.064.329-.064.263v.197l-.065.066zM19.827 12.368v-.263c0-.395-.258-.658-.708-.658-.515 0-.837.33-.966.921h1.674zm.772 3.092a6.219 6.219 0 01-1.545.198c-1.673 0-2.574-.79-2.574-2.303 0-1.776 1.094-3.092 2.639-3.092 1.223 0 2.06.724 2.06 1.842 0 .395-.065.724-.193 1.25H17.96v.132c0 .592.45.92 1.352.92.515 0 1.03-.13 1.61-.328l-.323 1.381zM35.212 12.565c0-.526-.193-1.052-.837-1.052-.772 0-1.223.92-1.223 1.776 0 .724.322 1.184.901 1.184.322 0 1.03-.46 1.16-1.25v-.658zm1.61.658c-.258 1.71-1.417 2.5-2.962 2.5-1.738 0-2.381-1.052-2.381-2.368 0-1.842 1.158-3.026 2.96-3.026 1.61 0 2.383.986 2.383 2.302.064.263.064.263 0 .592z" fill="#fff"/></svg><svg fill="none" viewBox="0 0 40 25" id="master-card" xmlns="http://www.w3.org/2000/svg"><path d="M40 12.5C40 19.359 34.646 25 28 25c-6.585 0-12-5.641-12-12.5S21.354 0 27.939 0C34.645 0 40 5.641 40 12.5z" fill="var(--color-pay, #F9B50B)"/><path d="M23.939 12.564c0-.897-.124-1.795-.247-2.628h-7.384c.061-.449.184-.833.307-1.346H23.2c-.123-.449-.308-.898-.492-1.346h-5.6c.184-.45.43-.834.677-1.347h4.246a8.765 8.765 0 00-.923-1.346h-2.339c.37-.448.739-.833 1.231-1.282C17.908 1.218 15.077 0 11.938 0 5.415.192 0 5.641 0 12.5S5.354 25 12 25c3.139 0 5.908-1.282 8.061-3.27.431-.384.8-.833 1.231-1.345h-2.461a9.178 9.178 0 01-.862-1.282h4.185c.246-.385.492-.834.677-1.347h-5.6a6.716 6.716 0 01-.493-1.346h6.585c.37-1.154.616-2.436.616-3.846z" fill="var(--color-pay, #C8191C)"/><path d="M16.247 15.705l.184-1.153c-.061 0-.184.064-.308.064-.43 0-.492-.257-.43-.385l.369-2.308h.677l.184-1.282h-.615l.123-.769H15.14s-.739 4.359-.739 4.872c0 .77.431 1.154 1.046 1.154.37 0 .678-.128.8-.193zM16.676 13.59c0 1.859 1.23 2.307 2.215 2.307.923 0 1.354-.192 1.354-.192l.246-1.282s-.677.32-1.354.32c-1.415 0-1.169-1.09-1.169-1.09h2.585s.184-.833.184-1.217c0-.834-.43-1.923-1.846-1.923-1.23-.064-2.215 1.41-2.215 3.077zm2.215-1.923c.677 0 .554.833.554.897H18.03c.061-.064.184-.897.861-.897zM26.953 15.705l.246-1.474s-.615.32-1.108.32c-.861 0-1.292-.705-1.292-1.538 0-1.603.739-2.436 1.662-2.436.615 0 1.169.385 1.169.385l.184-1.41s-.738-.321-1.476-.321c-1.477 0-2.893 1.346-2.893 3.846 0 1.667.739 2.757 2.277 2.757.554.064 1.231-.129 1.231-.129zM9.293 10.449c-.862 0-1.539.256-1.539.256L7.57 11.86s.553-.256 1.415-.256c.43 0 .8.064.8.448 0 .257-.062.32-.062.32H9.17c-1.107 0-2.276.45-2.276 1.988 0 1.218.738 1.474 1.23 1.474.862 0 1.293-.577 1.354-.577l-.061.513h1.046l.492-3.654c0-1.602-1.23-1.666-1.661-1.666zm.246 2.948c0 .193-.123 1.283-.862 1.283-.369 0-.492-.321-.492-.513 0-.32.184-.77 1.17-.77h.184zM12.185 15.834c.308 0 1.908.064 1.908-1.731 0-1.667-1.539-1.346-1.539-1.987 0-.321.246-.45.677-.45.185 0 .862.065.862.065l.184-1.218s-.43-.128-1.23-.128c-.924 0-1.908.384-1.908 1.73 0 1.539 1.6 1.41 1.6 1.988 0 .384-.431.448-.739.448-.553 0-1.169-.192-1.169-.192l-.184 1.218c.123.128.492.257 1.538.257zM37.539 9.423l-.246 1.795s-.492-.641-1.23-.641c-1.17 0-2.155 1.474-2.155 3.205 0 1.09.492 2.18 1.6 2.18.739 0 1.231-.514 1.231-.514l-.062.45h1.293l.923-6.347-1.354-.128zm-.615 3.461c0 .705-.308 1.667-1.047 1.667-.43 0-.677-.385-.677-1.09 0-1.09.431-1.73 1.047-1.73.43.064.677.384.677 1.153zM2.338 15.769l.739-4.744.123 4.744h.861l1.662-4.744-.677 4.744H6.4l1.046-6.346H5.354l-1.293 3.91L4 9.423H2.154l-1.047 6.346h1.231z" fill="#fff"/><path d="M22.03 15.77c.37-2.18.431-3.975 1.354-3.654.123-.834.308-1.218.431-1.539h-.246c-.554 0-1.046.77-1.046.77l.123-.706h-1.23l-.8 5.129h1.415zM29.908 10.449c-.862 0-1.539.256-1.539.256l-.184 1.154s.554-.256 1.415-.256c.43 0 .8.064.8.448 0 .257-.061.32-.061.32h-.554c-1.108 0-2.277.45-2.277 1.988 0 1.218.738 1.474 1.23 1.474.862 0 1.293-.577 1.354-.577l-.061.513h1.17l.491-3.654c0-1.602-1.353-1.666-1.784-1.666zm.307 2.948c0 .193-.123 1.283-.861 1.283-.37 0-.492-.321-.492-.513 0-.32.184-.77 1.169-.77h.184zM32.677 15.77c.37-2.18.43-3.975 1.354-3.654.123-.834.308-1.218.43-1.539h-.245c-.554 0-1.047.77-1.047.77l.123-.706h-1.23l-.8 5.129h1.415z" fill="#fff"/></svg><svg fill="none" viewBox="0 0 17 17" id="minus-square" xmlns="http://www.w3.org/2000/svg"><path d="M9 8h3a.5.5 0 010 1H5a.5.5 0 110-1h4z" fill="#000"/></svg><svg fill="none" viewBox="0 0 54 16" id="mir" xmlns="http://www.w3.org/2000/svg"><path d="M48.448 0H38.052c.605 3.51 3.936 6.813 7.57 6.813h8.276C54 6.503 54 5.987 54 5.677 54 2.581 51.476 0 48.448 0z" fill="var(--color-pay, #27B1E6)"/><path d="M38.96 7.432V16h5.048v-4.542h4.44c2.423 0 4.543-1.755 5.25-4.026H38.96zM21.196 0v15.897h4.441s1.11 0 1.716-1.136c3.028-6.09 3.937-7.948 3.937-7.948h.605v9.084h5.047V0h-4.441s-1.11.103-1.716 1.135C28.262 6.4 26.85 9.084 26.85 9.084h-.606V0h-5.047zM0 16V.102h5.047s1.413 0 2.22 2.27c2.019 5.988 2.22 6.813 2.22 6.813s.405-1.445 2.221-6.813C12.516.103 13.93.103 13.93.103h5.047v15.896h-5.047V7.432h-.606l-2.826 8.567h-2.22L5.45 7.432h-.606v8.567H0z" fill="var(--color-pay, #4FAD50)"/></svg><svg fill="none" viewBox="0 0 17 17" id="plus-square" xmlns="http://www.w3.org/2000/svg"><path d="M8.5 4.5A.5.5 0 019 5v3h3a.5.5 0 010 1H9v3a.5.5 0 01-1 0V9H5a.5.5 0 110-1h3V5a.5.5 0 01.5-.5z" fill="#000"/></svg><svg fill="none" viewBox="0 0 12 13" id="settings" xmlns="http://www.w3.org/2000/svg"><path d="M11.25 3.5H9.713A1.886 1.886 0 007.875 2c-.9 0-1.65.638-1.838 1.5H.75v.75h5.287c.188.862.938 1.5 1.838 1.5.9 0 1.65-.638 1.838-1.5h1.537V3.5zM7.875 5A1.105 1.105 0 016.75 3.875c0-.638.487-1.125 1.125-1.125C8.512 2.75 9 3.237 9 3.875S8.512 5 7.875 5zM.75 9.5h1.538c.187.863.937 1.5 1.837 1.5.9 0 1.65-.637 1.838-1.5h5.287v-.75H5.963a1.886 1.886 0 00-1.838-1.5c-.9 0-1.65.638-1.837 1.5H.75v.75zM4.125 8c.638 0 1.125.488 1.125 1.125s-.487 1.125-1.125 1.125A1.105 1.105 0 013 9.125C3 8.488 3.487 8 4.125 8z" fill="#282828"/></svg><svg fill="none" viewBox="0 0 18 18" id="telephone" xmlns="http://www.w3.org/2000/svg"><g clip-path="url(#bdclip0)"><path d="M4.111 1.494a.763.763 0 00-1.142-.07L1.806 2.587c-.543.544-.743 1.315-.506 1.99a19.764 19.764 0 004.689 7.435 19.766 19.766 0 007.434 4.689c.676.237 1.447.037 1.991-.507l1.163-1.163a.762.762 0 00-.07-1.142l-2.596-2.018a.765.765 0 00-.652-.137l-2.464.615a1.963 1.963 0 01-1.864-.516L6.168 9.07a1.963 1.963 0 01-.518-1.864l.617-2.464a.763.763 0 00-.137-.653L4.11 1.494zM2.12.574a1.963 1.963 0 012.939.184l2.018 2.595c.37.475.5 1.095.354 1.68l-.615 2.464a.763.763 0 00.2.723l2.764 2.764a.763.763 0 00.725.2l2.462-.615a1.963 1.963 0 011.681.355l2.594 2.018a1.963 1.963 0 01.184 2.937l-1.164 1.164c-.832.832-2.076 1.198-3.236.79A20.963 20.963 0 015.14 12.86 20.964 20.964 0 01.167 4.975C-.24 3.816.125 2.57.957 1.738L2.122.575H2.12z" fill="#00AB44"/></g><defs><clipPath id="bdclip0"><path fill="#fff" d="M0 0h18v18H0z"/></clipPath></defs></svg><svg fill="none" viewBox="0 0 20 21" id="telephone-fill" xmlns="http://www.w3.org/2000/svg"><path fill-rule="evenodd" clip-rule="evenodd" d="M5.414 4.883a1.309 1.309 0 011.958.122l1.346 1.73c.246.317.333.73.236 1.12l-.41 1.643a.509.509 0 00.133.482l1.843 1.843a.508.508 0 00.483.133l1.642-.41a1.31 1.31 0 011.12.236l1.73 1.346c.621.483.678 1.402.122 1.958l-.776.776c-.555.555-1.384.798-2.157.526a13.973 13.973 0 01-5.258-3.315 13.976 13.976 0 01-3.315-5.257c-.271-.773-.027-1.603.528-2.158l.775-.775z" fill="#00AB44"/></svg><svg fill="none" viewBox="0 0 9 9" id="tick" xmlns="http://www.w3.org/2000/svg"><path fill-rule="evenodd" clip-rule="evenodd" d="M9 .44L3.664 9 0 3.846l.618-.666 2.828 4.254L8.227 0 9 .44z" fill="#00AB44"/></svg><svg fill="none" viewBox="0 0 16 17" id="trash-can" xmlns="http://www.w3.org/2000/svg"><path d="M1.334 4.5h13.333m-8 3.333v3.334m2.667-3.334v3.334M2.667 4.5h10.667l-1.053 9.48a1.334 1.334 0 01-1.326 1.187H5.046a1.334 1.334 0 01-1.325-1.187L2.667 4.5zm2.23-1.902a1.333 1.333 0 011.206-.765h3.795a1.334 1.334 0 011.207.765L12 4.5H4l.896-1.902z" stroke="#A81111" stroke-linecap="round" stroke-linejoin="round"/></svg><svg fill="none" viewBox="0 0 25 26" id="user-outlined" xmlns="http://www.w3.org/2000/svg"><path d="M20.96 19.143a9.13 9.13 0 00-1.968-2.918 9.173 9.173 0 00-2.918-1.968c-.01-.005-.02-.007-.029-.012A6.054 6.054 0 0012.5 3.283a6.054 6.054 0 00-3.545 10.965l-.03.012a9.091 9.091 0 00-2.917 1.967 9.171 9.171 0 00-1.967 2.918 9.075 9.075 0 00-.72 3.372.195.195 0 00.195.2H4.98a.195.195 0 00.195-.19 7.279 7.279 0 012.143-4.988 7.276 7.276 0 015.181-2.146c1.958 0 3.796.761 5.18 2.146a7.278 7.278 0 012.144 4.987c.003.108.088.19.196.19h1.464a.196.196 0 00.196-.2 9.097 9.097 0 00-.72-3.373zm-8.46-5.606a4.172 4.172 0 01-2.969-1.23 4.172 4.172 0 01-1.23-2.97c0-1.12.437-2.174 1.23-2.968a4.172 4.172 0 012.97-1.23c1.12 0 2.174.437 2.968 1.23a4.172 4.172 0 011.23 2.969c0 1.12-.437 2.175-1.23 2.969a4.172 4.172 0 01-2.969 1.23z" fill="#282828"/></svg><svg fill="none" viewBox="0 0 56 17" id="visa" xmlns="http://www.w3.org/2000/svg"><path d="M52.234.243h-3.52c-1.065 0-1.883.323-2.375 1.376l-6.713 15.138h4.748s.82-2.024.983-2.51h5.813c.163.567.573 2.429.573 2.429H56L52.234.243zm-5.567 10.604c.41-.971 1.801-4.614 1.801-4.614 0 .081.41-.971.573-1.538l.328 1.457s.9 3.967 1.064 4.776h-3.766v-.08zM39.953 11.333c0 3.4-3.111 5.667-7.941 5.667-2.047 0-4.012-.405-5.076-.89l.654-3.724.574.243c1.473.647 2.456.89 4.257.89 1.31 0 2.702-.486 2.702-1.619 0-.729-.573-1.214-2.375-2.024-1.719-.81-4.011-2.105-4.011-4.452C28.737 2.186 31.93 0 36.433 0c1.719 0 3.193.324 4.093.729l-.655 3.561-.327-.323c-.819-.324-1.883-.648-3.439-.648-1.72.081-2.538.81-2.538 1.457 0 .729.983 1.295 2.538 2.024 2.62 1.214 3.848 2.59 3.848 4.533z" fill="var(--color-pay, #3362AB)"/><path d="M0 .405L.082.08h7.04c.983 0 1.72.324 1.966 1.376l1.555 7.286C9.088 4.857 5.485 1.7 0 .405z" fill="var(--color-pay, #F9B50B)"/><path d="M20.55.243l-7.122 16.433h-4.83L4.503 2.914c2.947 1.862 5.403 4.777 6.304 6.8l.491 1.7L15.72.162h4.83v.081zM22.432.162h4.503l-2.866 16.514h-4.503L22.432.162z" fill="var(--color-pay, #3362AB)"/></svg><svg fill="none" viewBox="0 0 30 18" id="vk" xmlns="http://www.w3.org/2000/svg"><path d="M24.894 10.322c-.485-.63-.346-.91 0-1.474.006-.006 4.01-5.697 4.422-7.627l.003-.001c.205-.703 0-1.22-.991-1.22h-3.28c-.835 0-1.22.443-1.427.94 0 0-1.67 4.111-4.032 6.777-.763.77-1.115 1.017-1.531 1.017-.206 0-.524-.247-.524-.95V1.22c0-.844-.234-1.22-.925-1.22H11.45c-.524 0-.835.393-.835.76 0 .8 1.181.983 1.304 3.233v4.882c0 1.07-.189 1.267-.607 1.267-1.116 0-3.822-4.129-5.426-8.854C5.564.371 5.248.001 4.408.001H1.124C.189.001 0 .445 0 .941c0 .877 1.115 5.237 5.185 10.997C7.898 15.869 11.717 18 15.193 18c2.088 0 2.343-.473 2.343-1.287 0-3.757-.189-4.112.858-4.112.485 0 1.32.247 3.27 2.143C23.892 16.993 24.259 18 25.506 18h3.28c.935 0 1.409-.473 1.136-1.407-.623-1.963-4.838-6.002-5.028-6.271z" fill="var(--social, white)"/></svg></svg>