<svg width="30" height="30" viewBox="0 0 30 30" fill="none" xmlns="http://www.w3.org/2000/svg">
<circle r="14.5" transform="matrix(1.19249e-08 -1 -1 -1.19249e-08 15 15)" fill="#00AB44" stroke="#00AB44"/>
<path d="M10.3333 13.78C10.333 13.8796 10.355 13.978 10.3976 14.068C10.4403 14.1579 10.5026 14.2372 10.58 14.3L14.58 17.52C14.6993 17.618 14.8489 17.6716 15.0033 17.6716C15.1577 17.6716 15.3074 17.618 15.4266 17.52L19.4266 14.1866C19.5628 14.0735 19.6484 13.9109 19.6647 13.7346C19.6809 13.5583 19.6265 13.3828 19.5133 13.2466C19.4002 13.1105 19.2375 13.0249 19.0613 13.0086C18.885 12.9924 18.7095 13.0468 18.5733 13.16L15 16.14L11.4266 13.26C11.3288 13.1785 11.2096 13.1267 11.0833 13.1107C10.9569 13.0948 10.8286 13.1154 10.7136 13.1701C10.5986 13.2248 10.5016 13.3114 10.4342 13.4194C10.3668 13.5275 10.3318 13.6526 10.3333 13.78Z" fill="white"/>
</svg>
