<svg width="10" height="11" viewBox="0 0 10 11" fill="none" xmlns="http://www.w3.org/2000/svg">
<path d="M5.0002 8.16667C4.90284 8.16686 4.80849 8.13295 4.73353 8.07084L2.23353 5.9875C2.14844 5.91678 2.09493 5.81515 2.08477 5.70497C2.07461 5.59479 2.10864 5.48509 2.17936 5.4C2.25009 5.31491 2.35172 5.2614 2.46189 5.25124C2.57207 5.24109 2.68177 5.27511 2.76686 5.34584L5.0002 7.2125L7.23353 5.4125C7.27615 5.37789 7.32519 5.35205 7.37783 5.33645C7.43047 5.32085 7.48568 5.31581 7.54027 5.32162C7.59487 5.32743 7.64778 5.34397 7.69596 5.37029C7.74414 5.39661 7.78664 5.4322 7.82103 5.475C7.85919 5.51785 7.88809 5.56811 7.90592 5.62264C7.92375 5.67717 7.93012 5.73479 7.92465 5.7919C7.91917 5.84901 7.90196 5.90438 7.87409 5.95452C7.84622 6.00467 7.8083 6.04853 7.7627 6.08334L5.2627 8.09584C5.18558 8.14813 5.09315 8.17307 5.0002 8.16667V8.16667Z" fill="#282828"/>
</svg>
