<svg width="20" height="20" viewBox="0 0 20 20" fill="none" xmlns="http://www.w3.org/2000/svg">
<circle cx="10" cy="10" r="9.5" fill="white" stroke="#D70000"/>
<path d="M10.6027 11.8276H9.43098L9.08081 5H10.9461L10.6027 11.8276ZM9 13.9671C9 13.6363 9.08754 13.3859 9.26263 13.216C9.43771 13.0416 9.68687 12.9544 10.0101 12.9544C10.3288 12.9544 10.5735 13.0438 10.7441 13.2227C10.9147 13.4015 11 13.6497 11 13.9671C11 14.2846 10.9125 14.5372 10.7374 14.725C10.5668 14.9083 10.3244 15 10.0101 15C9.69136 15 9.4422 14.9106 9.26263 14.7317C9.08754 14.5529 9 14.298 9 13.9671Z" fill="#D70000"/>
</svg>
