<svg width="27" height="28" viewBox="0 0 27 28" fill="none" xmlns="http://www.w3.org/2000/svg">
<path d="M4.21875 3.875C3.99497 3.875 3.78036 3.96389 3.62213 4.12213C3.4639 4.28036 3.375 4.49497 3.375 4.71875C3.375 4.94253 3.4639 5.15714 3.62213 5.31537C3.78036 5.47361 3.99497 5.5625 4.21875 5.5625H4.63388C4.81709 5.56282 4.99522 5.62276 5.14135 5.73327C5.28748 5.84379 5.39367 5.99886 5.44388 6.17506L8.12025 15.5407C8.27162 16.0692 8.59096 16.5341 9.02998 16.865C9.46901 17.196 10.0038 17.375 10.5536 17.375H18.2638C18.7698 17.3751 19.2642 17.2235 19.6832 16.9399C20.1022 16.6562 20.4266 16.2535 20.6145 15.7837L23.1019 9.56356C23.2041 9.30761 23.2421 9.03051 23.2126 8.75648C23.183 8.48245 23.0868 8.21984 22.9323 7.99159C22.7778 7.76334 22.5697 7.57641 22.3263 7.44713C22.0829 7.31786 21.8115 7.25017 21.5359 7.25H7.506L7.06556 5.711C6.91457 5.18243 6.59562 4.71738 6.15691 4.38614C5.7182 4.0549 5.18359 3.87548 4.63388 3.875H4.21875ZM9.74363 15.0749L7.98863 8.9375H21.5342L19.0468 15.1576C18.9841 15.314 18.8761 15.4481 18.7365 15.5425C18.5969 15.637 18.4323 15.6875 18.2638 15.6875H10.5536C10.3704 15.6872 10.1923 15.6272 10.0461 15.5167C9.90002 15.4062 9.79383 15.2511 9.74363 15.0749V15.0749Z" fill="var(--cart-color, #282828)"/>
<path d="M10.9688 24.125C11.3012 24.125 11.6303 24.0595 11.9374 23.9323C12.2445 23.8051 12.5236 23.6187 12.7586 23.3836C12.9937 23.1486 13.1801 22.8695 13.3073 22.5624C13.4345 22.2553 13.5 21.9262 13.5 21.5938C13.5 21.2613 13.4345 20.9322 13.3073 20.6251C13.1801 20.318 12.9937 20.0389 12.7586 19.8039C12.5236 19.5688 12.2445 19.3824 11.9374 19.2552C11.6303 19.128 11.3012 19.0625 10.9688 19.0625C10.2974 19.0625 9.65359 19.3292 9.17889 19.8039C8.70418 20.2786 8.4375 20.9224 8.4375 21.5938C8.4375 22.2651 8.70418 22.9089 9.17889 23.3836C9.65359 23.8583 10.2974 24.125 10.9688 24.125V24.125ZM10.9688 22.4375C10.745 22.4375 10.5304 22.3486 10.3721 22.1904C10.2139 22.0321 10.125 21.8175 10.125 21.5938C10.125 21.37 10.2139 21.1554 10.3721 20.9971C10.5304 20.8389 10.745 20.75 10.9688 20.75C11.1925 20.75 11.4071 20.8389 11.5654 20.9971C11.7236 21.1554 11.8125 21.37 11.8125 21.5938C11.8125 21.8175 11.7236 22.0321 11.5654 22.1904C11.4071 22.3486 11.1925 22.4375 10.9688 22.4375Z" fill="var(--cart-color, #282828)"/>
<path d="M17.7188 24.125C18.0512 24.125 18.3803 24.0595 18.6874 23.9323C18.9945 23.8051 19.2736 23.6187 19.5086 23.3836C19.7437 23.1486 19.9301 22.8695 20.0573 22.5624C20.1845 22.2553 20.25 21.9262 20.25 21.5938C20.25 21.2613 20.1845 20.9322 20.0573 20.6251C19.9301 20.318 19.7437 20.0389 19.5086 19.8039C19.2736 19.5688 18.9945 19.3824 18.6874 19.2552C18.3803 19.128 18.0512 19.0625 17.7188 19.0625C17.0474 19.0625 16.4036 19.3292 15.9289 19.8039C15.4542 20.2786 15.1875 20.9224 15.1875 21.5938C15.1875 22.2651 15.4542 22.9089 15.9289 23.3836C16.4036 23.8583 17.0474 24.125 17.7188 24.125V24.125ZM17.7188 22.4375C17.495 22.4375 17.2804 22.3486 17.1221 22.1904C16.9639 22.0321 16.875 21.8175 16.875 21.5938C16.875 21.37 16.9639 21.1554 17.1221 20.9971C17.2804 20.8389 17.495 20.75 17.7188 20.75C17.9425 20.75 18.1571 20.8389 18.3154 20.9971C18.4736 21.1554 18.5625 21.37 18.5625 21.5938C18.5625 21.8175 18.4736 22.0321 18.3154 22.1904C18.1571 22.3486 17.9425 22.4375 17.7188 22.4375Z" fill="var(--cart-color, #282828)"/>
</svg>
