<svg width="32" height="32" viewBox="0 0 32 32" fill="none" xmlns="http://www.w3.org/2000/svg">
<path d="M24.9723 18.5762L20.6646 15.4993C20.3878 15.3016 20.0035 15.3657 19.8061 15.6423C19.6085 15.9189 19.6726 16.3032 19.9492 16.5008L23.5558 19.0769L19.9492 21.6531C19.6727 21.8507 19.6085 22.235 19.8061 22.5116C19.9262 22.6798 20.1153 22.7694 20.3073 22.7694C20.4312 22.7694 20.5561 22.7321 20.6645 22.6547L24.9722 19.5778C25.1339 19.4622 25.2299 19.2758 25.2299 19.077C25.2299 18.8783 25.1339 18.6917 24.9723 18.5762Z" fill="#00AB44"/>
<path d="M16.8071 14.0089L14.0078 23.8071L15.1912 24.1452L17.9905 14.347L16.8071 14.0089Z" fill="#00AB44"/>
<path d="M12.0503 21.6531L8.44366 19.0769L12.0503 16.5008C12.3268 16.3032 12.391 15.9189 12.1934 15.6423C11.9958 15.3656 11.6116 15.3016 11.3349 15.4992L7.02722 18.5761C6.86553 18.6917 6.76953 18.8781 6.76953 19.0769C6.76953 19.2756 6.86553 19.4621 7.02722 19.5776L11.3349 22.6546C11.4434 22.732 11.5683 22.7692 11.6921 22.7692C11.8841 22.7692 12.0732 22.6796 12.1933 22.5115C12.3909 22.235 12.3268 21.8507 12.0503 21.6531Z" fill="#00AB44"/>
<path d="M27.5193 8.65981L19.3668 0.188625C19.2508 0.068125 19.0907 0 18.9234 0H6.77277C5.41295 0 4.30664 1.10331 4.30664 2.45944V29.5406C4.30664 30.8967 5.41295 32 6.77277 32H25.2251C26.585 32 27.6913 30.8967 27.6913 29.5406V9.08656C27.6913 8.92744 27.6296 8.7745 27.5193 8.65981ZM19.0759 1.66131L25.7683 8.61537H19.0759V1.66131ZM26.4605 29.5406C26.4605 30.2181 25.9063 30.7693 25.2251 30.7693H6.77277C6.09158 30.7693 5.53739 30.2181 5.53739 29.5406V2.45944C5.53739 1.78194 6.09158 1.23075 6.77277 1.23075H17.8451V9.23075C17.8451 9.57063 18.1206 9.84612 18.4605 9.84612H26.4605V29.5406H26.4605Z" fill="#00AB44"/>
</svg>
