<svg width="61" height="25" viewBox="0 0 61 25" fill="none" xmlns="http://www.w3.org/2000/svg">
<path d="M28.8502 12.2136V19.5417H26.5977V1.44458H32.5718C33.2849 1.4292 33.9939 1.55973 34.6578 1.82863C35.3218 2.09753 35.9276 2.49948 36.4403 3.01127C36.9581 3.492 37.3702 4.08155 37.649 4.74032C37.9277 5.39908 38.0666 6.11179 38.0562 6.83055C38.0711 7.55315 37.9343 8.27052 37.6554 8.93348C37.3765 9.59644 36.962 10.1893 36.4403 10.6715C35.3956 11.6996 34.1061 12.2132 32.5718 12.2122H28.8502V12.2136ZM28.8502 3.67261V9.98994H32.6277C33.0419 10.0026 33.454 9.92593 33.8378 9.76481C34.2216 9.60369 34.5685 9.36168 34.8565 9.05425C35.143 8.76681 35.3707 8.42301 35.5262 8.04317C35.6817 7.66333 35.7618 7.25517 35.7618 6.84282C35.7618 6.43048 35.6817 6.02232 35.5262 5.64248C35.3707 5.26264 35.143 4.91884 34.8565 4.6314C34.5721 4.31749 34.2264 4.06955 33.8421 3.904C33.4579 3.73846 33.044 3.65909 32.6277 3.67116H28.8502V3.67261Z" fill="#5F6368"/>
<path d="M43.2461 6.75537C44.911 6.75537 46.2252 7.21455 47.1887 8.13291C48.1522 9.05127 48.6335 10.3104 48.6326 11.9103V19.5416H46.478V17.8233H46.38C45.4473 19.2384 44.2068 19.946 42.6585 19.946C41.3368 19.946 40.231 19.5416 39.3412 18.733C38.9142 18.3619 38.5728 17.8971 38.3419 17.3725C38.111 16.8479 37.9964 16.2768 38.0065 15.7007C38.0065 14.4194 38.4756 13.4005 39.414 12.6438C40.3523 11.8872 41.6049 11.5079 43.1719 11.506C44.5095 11.506 45.611 11.7587 46.4766 12.2641V11.7327C46.4791 11.34 46.397 10.9516 46.236 10.5957C46.0751 10.2398 45.8395 9.92531 45.5462 9.67506C44.9505 9.1204 44.1742 8.81776 43.372 8.82746C42.1137 8.82746 41.1181 9.3752 40.3849 10.4707L38.401 9.18123C39.4923 7.56399 41.1073 6.75537 43.2461 6.75537ZM40.3318 15.7513C40.3303 16.0471 40.3973 16.3391 40.5272 16.6028C40.6572 16.8665 40.8463 17.0944 41.0789 17.2674C41.5771 17.6719 42.1954 17.8861 42.8291 17.8739C43.7797 17.8722 44.6908 17.4818 45.3629 16.788C46.1091 16.0631 46.4822 15.2127 46.4822 14.2365C45.7798 13.659 44.8005 13.3702 43.5441 13.3702C42.6291 13.3702 41.8661 13.5978 41.2552 14.0532C40.6382 14.5152 40.3318 15.0769 40.3318 15.7513V15.7513Z" fill="#5F6368"/>
<path d="M60.9995 7.15967L53.4779 24.9998H51.1526L53.9438 18.7576L48.998 7.15967H51.4465L55.0211 16.0545H55.0701L58.5469 7.15967H60.9995Z" fill="#5F6368"/>
<path d="M19.7456 10.634C19.7464 9.9255 19.6884 9.21826 19.5721 8.52002H10.0723V12.5241H15.5133C15.402 13.1636 15.1663 13.7733 14.8206 14.3162C14.4748 14.8592 14.0261 15.3243 13.5014 15.6835V18.2826H16.7487C18.6501 16.4734 19.7456 13.7977 19.7456 10.634Z" fill="#4285F4"/>
<path d="M10.0726 20.7935C12.7911 20.7935 15.08 19.8722 16.7491 18.2839L13.5018 15.6847C12.598 16.3172 11.4339 16.6782 10.0726 16.6782C7.44513 16.6782 5.21498 14.8501 4.41749 12.3867H1.07227V15.0653C1.9107 16.7872 3.19634 18.2347 4.78565 19.2462C6.37497 20.2577 8.20541 20.7934 10.0726 20.7935V20.7935Z" fill="#34A853"/>
<path d="M4.41787 12.3871C3.99627 11.0963 3.99627 9.6984 4.41787 8.40756V5.729H1.07264C0.367328 7.17752 0 8.7762 0 10.3973C0 12.0185 0.367328 13.6172 1.07264 15.0657L4.41787 12.3871Z" fill="#FBBC04"/>
<path d="M10.0726 4.11597C11.5092 4.09175 12.8973 4.65194 13.9369 5.67545L16.8121 2.70811C14.9889 0.940811 12.5737 -0.0294665 10.0726 0.000682109C8.20542 0.000769939 6.37497 0.536471 4.78565 1.54798C3.19634 2.55948 1.9107 4.00699 1.07227 5.72888L4.4175 8.40743C5.21498 5.94403 7.44513 4.11597 10.0726 4.11597Z" fill="#EA4335"/>
</svg>
