<svg width="14" height="14" viewBox="0 0 14 14" fill="none" xmlns="http://www.w3.org/2000/svg">
<path fill-rule="evenodd" clip-rule="evenodd" d="M1.73535 3.4854C1.73535 3.16324 1.99652 2.90207 2.31868 2.90207H11.652C11.9742 2.90207 12.2354 3.16324 12.2354 3.4854C12.2354 3.80757 11.9742 4.06874 11.652 4.06874H2.31868C1.99652 4.06874 1.73535 3.80757 1.73535 3.4854Z" fill="white"/>
<path fill-rule="evenodd" clip-rule="evenodd" d="M1.73535 6.9854C1.73535 6.66324 1.99652 6.40207 2.31868 6.40207H11.652C11.9742 6.40207 12.2354 6.66324 12.2354 6.9854C12.2354 7.30757 11.9742 7.56874 11.652 7.56874H2.31868C1.99652 7.56874 1.73535 7.30757 1.73535 6.9854Z" fill="white"/>
<path fill-rule="evenodd" clip-rule="evenodd" d="M1.73535 10.4854C1.73535 10.1632 1.99652 9.90207 2.31868 9.90207H11.652C11.9742 9.90207 12.2354 10.1632 12.2354 10.4854C12.2354 10.8076 11.9742 11.0687 11.652 11.0687H2.31868C1.99652 11.0687 1.73535 10.8076 1.73535 10.4854Z" fill="white"/>
</svg>
