<svg width="30" height="30" viewBox="0 0 30 30" fill="none" xmlns="http://www.w3.org/2000/svg">
<path d="M15.0013 0.0151919C8.85737 0.0151919 3.02305 -0.53092 0.794569 5.18382C-0.125927 7.5441 0.00774817 10.6094 0.00774817 14.9986C0.00774817 18.8502 -0.115774 22.47 0.794569 24.8117C3.01797 30.5299 8.89968 29.9821 14.998 29.9821C20.8814 29.9821 26.9475 30.5941 29.2031 24.8117C30.1252 22.4278 29.9899 19.4081 29.9899 14.9986C29.9899 9.14525 30.3131 5.36642 27.472 2.52934C24.5955 -0.344938 20.7054 0.0151919 14.9946 0.0151919H15.0013ZM13.6578 2.71532C26.4737 2.69503 28.1049 1.27142 27.2047 21.0481C26.8849 28.0428 21.5548 27.2752 15.003 27.2752C3.05689 27.2752 2.7134 26.9336 2.7134 14.9919C2.7134 2.91145 3.66097 2.72208 13.6578 2.71194V2.71532ZM23.0049 5.20241C22.0117 5.20241 21.2062 6.00721 21.2062 6.99968C21.2062 7.99215 22.0117 8.79695 23.0049 8.79695C23.9982 8.79695 24.8036 7.99215 24.8036 6.99968C24.8036 6.00721 23.9982 5.20241 23.0049 5.20241V5.20241ZM15.0013 7.30402C10.7491 7.30402 7.30234 10.7498 7.30234 14.9986C7.30234 19.2475 10.7491 22.6915 15.0013 22.6915C19.2536 22.6915 22.6987 19.2475 22.6987 14.9986C22.6987 10.7498 19.2536 7.30402 15.0013 7.30402V7.30402ZM15.0013 10.0041C21.609 10.0041 21.6174 19.9931 15.0013 19.9931C8.39543 19.9931 8.38528 10.0041 15.0013 10.0041Z" fill="white"/>
</svg>
