<svg width="12" height="13" viewBox="0 0 12 13" fill="none" xmlns="http://www.w3.org/2000/svg">
<path d="M11.25 3.5H9.7125C9.525 2.6375 8.775 2 7.875 2C6.975 2 6.225 2.6375 6.0375 3.5H0.75V4.25H6.0375C6.225 5.1125 6.975 5.75 7.875 5.75C8.775 5.75 9.525 5.1125 9.7125 4.25H11.25V3.5ZM7.875 5C7.2375 5 6.75 4.5125 6.75 3.875C6.75 3.2375 7.2375 2.75 7.875 2.75C8.5125 2.75 9 3.2375 9 3.875C9 4.5125 8.5125 5 7.875 5Z" fill="#282828"/>
<path d="M0.75 9.5H2.2875C2.475 10.3625 3.225 11 4.125 11C5.025 11 5.775 10.3625 5.9625 9.5H11.25V8.75H5.9625C5.775 7.8875 5.025 7.25 4.125 7.25C3.225 7.25 2.475 7.8875 2.2875 8.75H0.75V9.5ZM4.125 8C4.7625 8 5.25 8.4875 5.25 9.125C5.25 9.7625 4.7625 10.25 4.125 10.25C3.4875 10.25 3 9.7625 3 9.125C3 8.4875 3.4875 8 4.125 8Z" fill="#282828"/>
</svg>
