<svg width="16" height="17" viewBox="0 0 16 17" fill="none" xmlns="http://www.w3.org/2000/svg">
<path d="M1.33398 4.50001H14.6673M6.66732 7.83334V11.1667M9.33398 7.83334V11.1667M2.66732 4.50001H13.334L12.2807 13.98C12.2445 14.3063 12.0894 14.6077 11.8448 14.8267C11.6003 15.0456 11.2836 15.1667 10.9553 15.1667H5.04598C4.71774 15.1667 4.40103 15.0456 4.15648 14.8267C3.91194 14.6077 3.75676 14.3063 3.72065 13.98L2.66732 4.50001ZM4.89732 2.59801C5.00515 2.36932 5.17579 2.17601 5.38932 2.04062C5.60285 1.90523 5.85048 1.83334 6.10332 1.83334H9.89798C10.1509 1.83321 10.3987 1.90504 10.6124 2.04044C10.826 2.17584 10.9968 2.36922 11.1047 2.59801L12.0007 4.50001H4.00065L4.89732 2.59801Z" stroke="#A81111" stroke-linecap="round" stroke-linejoin="round"/>
</svg>
